<svg xmlns="http://www.w3.org/2000/svg" xmlns:xlink="http://www.w3.org/1999/xlink" viewBox="0 0 483.92 589.57"><defs><style>.cls-1{isolation:isolate;}.cls-2{mix-blend-mode:multiply;}.cls-3{fill:url(#radial-gradient);}.cls-4{fill:url(#radial-gradient-3);}.cls-5{fill:url(#radial-gradient-5);}.cls-6{fill:url(#radial-gradient-7);}.cls-7{fill:url(#radial-gradient-9);}.cls-8{fill:url(#radial-gradient-11);}.cls-9{fill:url(#radial-gradient-13);}.cls-10{fill:url(#radial-gradient-15);}.cls-11{fill:url(#radial-gradient-17);}.cls-12{fill:url(#radial-gradient-19);}.cls-13{fill:url(#radial-gradient-21);}.cls-14{fill:url(#radial-gradient-23);}.cls-15{fill:url(#radial-gradient-25);}.cls-16{fill:url(#radial-gradient-27);}.cls-17{fill:url(#radial-gradient-29);}.cls-18{fill:url(#radial-gradient-31);}.cls-19{fill:url(#radial-gradient-33);}.cls-20{fill:url(#radial-gradient-35);}.cls-21{fill:url(#radial-gradient-37);}.cls-22{fill:url(#radial-gradient-39);}.cls-23{fill:url(#radial-gradient-41);}.cls-24{fill:url(#radial-gradient-43);}.cls-25{fill:url(#radial-gradient-45);}.cls-26{fill:url(#radial-gradient-47);}.cls-27{fill:url(#radial-gradient-49);}.cls-28{fill:url(#radial-gradient-51);}.cls-29{fill:url(#radial-gradient-53);}.cls-30{fill:url(#radial-gradient-55);}.cls-31{fill:url(#radial-gradient-57);}.cls-32{fill:url(#radial-gradient-59);}.cls-33{fill:url(#radial-gradient-61);}.cls-34{fill:url(#radial-gradient-63);}.cls-35{fill:url(#radial-gradient-65);}.cls-36{fill:url(#radial-gradient-67);}.cls-37{fill:url(#radial-gradient-69);}.cls-38{fill:url(#radial-gradient-71);}.cls-39{fill:url(#radial-gradient-73);}.cls-40{fill:url(#radial-gradient-75);}.cls-41{fill:url(#radial-gradient-77);}.cls-42{fill:url(#radial-gradient-79);}.cls-43{fill:url(#radial-gradient-81);}.cls-44{fill:url(#radial-gradient-83);}.cls-45{fill:url(#radial-gradient-85);}.cls-46{fill:url(#radial-gradient-87);}.cls-47{fill:url(#radial-gradient-89);}.cls-48{fill:url(#radial-gradient-91);}.cls-49{fill:url(#radial-gradient-93);}.cls-50{fill:url(#radial-gradient-95);}.cls-51{fill:url(#radial-gradient-97);}.cls-52{fill:url(#radial-gradient-99);}.cls-53{fill:url(#radial-gradient-101);}.cls-54{font-size:222.83px;fill:#fff;font-family:ArialRoundedMTBold, Arial Rounded MT Bold;}.cls-55{fill:url(#linear-gradient);}.cls-56{fill:url(#Degradado_sin_nombre_1110);}.cls-57{fill:url(#Degradado_sin_nombre_3);}.cls-58{fill:url(#Degradado_sin_nombre_1108);}.cls-59{fill:url(#Degradado_sin_nombre_2);}.cls-60{fill:url(#Degradado_sin_nombre_1130);}.cls-61{opacity:0.8;fill:url(#Degradado_sin_nombre_1135);}</style><radialGradient id="radial-gradient" cx="179.43" cy="233.55" fx="298.25139163638886" fy="233.54837823226717" r="120.02" gradientTransform="translate(50 50)" gradientUnits="userSpaceOnUse"><stop offset="0" stop-color="#fff"/><stop offset="0.09" stop-color="#ffeaef" stop-opacity="0.98"/><stop offset="0.29" stop-color="#ffb4c7" stop-opacity="0.93"/><stop offset="0.39" stop-color="#ff94af" stop-opacity="0.9"/></radialGradient><radialGradient id="radial-gradient-3" cx="179.43" cy="233.55" r="120.02" gradientTransform="translate(49 49)" xlink:href="#radial-gradient"/><radialGradient id="radial-gradient-5" cx="179.43" cy="233.55" r="120.02" gradientTransform="translate(48 48)" xlink:href="#radial-gradient"/><radialGradient id="radial-gradient-7" cx="179.43" cy="233.55" r="120.02" gradientTransform="translate(47 47)" xlink:href="#radial-gradient"/><radialGradient id="radial-gradient-9" cx="179.43" cy="233.55" r="120.02" gradientTransform="translate(46 46)" xlink:href="#radial-gradient"/><radialGradient id="radial-gradient-11" cx="179.43" cy="233.55" r="120.02" gradientTransform="translate(45 45)" xlink:href="#radial-gradient"/><radialGradient id="radial-gradient-13" cx="179.43" cy="233.55" r="120.02" gradientTransform="translate(44 44)" xlink:href="#radial-gradient"/><radialGradient id="radial-gradient-15" cx="179.43" cy="233.55" r="120.02" gradientTransform="translate(43 43)" xlink:href="#radial-gradient"/><radialGradient id="radial-gradient-17" cx="179.43" cy="233.55" r="120.02" gradientTransform="translate(42 42)" xlink:href="#radial-gradient"/><radialGradient id="radial-gradient-19" cx="179.43" cy="233.55" r="120.02" gradientTransform="translate(41 41)" xlink:href="#radial-gradient"/><radialGradient id="radial-gradient-21" cx="179.43" cy="233.55" r="120.02" gradientTransform="translate(40 40)" xlink:href="#radial-gradient"/><radialGradient id="radial-gradient-23" cx="179.43" cy="233.55" r="120.02" gradientTransform="translate(39 39)" xlink:href="#radial-gradient"/><radialGradient id="radial-gradient-25" cx="179.43" cy="233.55" r="120.02" gradientTransform="translate(38 38)" xlink:href="#radial-gradient"/><radialGradient id="radial-gradient-27" cx="179.43" cy="233.55" r="120.02" gradientTransform="translate(37 37)" xlink:href="#radial-gradient"/><radialGradient id="radial-gradient-29" cx="179.43" cy="233.55" r="120.02" gradientTransform="translate(36 36)" xlink:href="#radial-gradient"/><radialGradient id="radial-gradient-31" cx="179.43" cy="233.55" r="120.02" gradientTransform="translate(35 35)" xlink:href="#radial-gradient"/><radialGradient id="radial-gradient-33" cx="179.43" cy="233.55" r="120.02" gradientTransform="translate(34 34)" xlink:href="#radial-gradient"/><radialGradient id="radial-gradient-35" cx="179.43" cy="233.55" r="120.02" gradientTransform="translate(33 33)" xlink:href="#radial-gradient"/><radialGradient id="radial-gradient-37" cx="179.43" cy="233.55" r="120.02" gradientTransform="translate(32 32)" xlink:href="#radial-gradient"/><radialGradient id="radial-gradient-39" cx="179.43" cy="233.55" r="120.02" gradientTransform="translate(31 31)" xlink:href="#radial-gradient"/><radialGradient id="radial-gradient-41" cx="179.43" cy="233.55" r="120.02" gradientTransform="translate(30 30)" xlink:href="#radial-gradient"/><radialGradient id="radial-gradient-43" cx="179.43" cy="233.55" r="120.02" gradientTransform="translate(29 29)" xlink:href="#radial-gradient"/><radialGradient id="radial-gradient-45" cx="179.43" cy="233.55" r="120.02" gradientTransform="translate(28 28)" xlink:href="#radial-gradient"/><radialGradient id="radial-gradient-47" cx="179.43" cy="233.55" r="120.02" gradientTransform="translate(27 27)" xlink:href="#radial-gradient"/><radialGradient id="radial-gradient-49" cx="179.43" cy="233.55" r="120.02" gradientTransform="translate(26 26)" xlink:href="#radial-gradient"/><radialGradient id="radial-gradient-51" cx="179.43" cy="233.55" r="120.02" gradientTransform="translate(25 25)" xlink:href="#radial-gradient"/><radialGradient id="radial-gradient-53" cx="179.43" cy="233.55" r="120.02" gradientTransform="translate(24 24)" xlink:href="#radial-gradient"/><radialGradient id="radial-gradient-55" cx="179.43" cy="233.55" r="120.02" gradientTransform="translate(23 23)" xlink:href="#radial-gradient"/><radialGradient id="radial-gradient-57" cx="179.43" cy="233.55" r="120.02" gradientTransform="translate(22 22)" xlink:href="#radial-gradient"/><radialGradient id="radial-gradient-59" cx="179.43" cy="233.55" r="120.02" gradientTransform="translate(21 21)" xlink:href="#radial-gradient"/><radialGradient id="radial-gradient-61" cx="179.43" cy="233.55" r="120.02" gradientTransform="translate(20 20)" xlink:href="#radial-gradient"/><radialGradient id="radial-gradient-63" cx="179.43" cy="233.55" r="120.02" gradientTransform="translate(19 19)" xlink:href="#radial-gradient"/><radialGradient id="radial-gradient-65" cx="179.43" cy="233.55" r="120.02" gradientTransform="translate(18 18)" xlink:href="#radial-gradient"/><radialGradient id="radial-gradient-67" cx="179.43" cy="233.55" r="120.02" gradientTransform="translate(17 17)" xlink:href="#radial-gradient"/><radialGradient id="radial-gradient-69" cx="179.43" cy="233.55" r="120.02" gradientTransform="translate(16 16)" xlink:href="#radial-gradient"/><radialGradient id="radial-gradient-71" cx="179.43" cy="233.55" r="120.02" gradientTransform="translate(15 15)" xlink:href="#radial-gradient"/><radialGradient id="radial-gradient-73" cx="179.43" cy="233.55" r="120.02" gradientTransform="translate(14 14)" xlink:href="#radial-gradient"/><radialGradient id="radial-gradient-75" cx="179.43" cy="233.55" r="120.02" gradientTransform="translate(13 13)" xlink:href="#radial-gradient"/><radialGradient id="radial-gradient-77" cx="179.43" cy="233.55" r="120.02" gradientTransform="translate(12 12)" xlink:href="#radial-gradient"/><radialGradient id="radial-gradient-79" cx="179.43" cy="233.55" r="120.02" gradientTransform="translate(11 11)" xlink:href="#radial-gradient"/><radialGradient id="radial-gradient-81" cx="179.43" cy="233.55" r="120.02" gradientTransform="translate(10 10)" xlink:href="#radial-gradient"/><radialGradient id="radial-gradient-83" cx="179.43" cy="233.55" r="120.02" gradientTransform="translate(9 9)" xlink:href="#radial-gradient"/><radialGradient id="radial-gradient-85" cx="179.43" cy="233.55" r="120.02" gradientTransform="translate(8 8)" xlink:href="#radial-gradient"/><radialGradient id="radial-gradient-87" cx="179.43" cy="233.55" r="120.02" gradientTransform="translate(7 7)" xlink:href="#radial-gradient"/><radialGradient id="radial-gradient-89" cx="179.43" cy="233.55" r="120.02" gradientTransform="translate(6 6)" xlink:href="#radial-gradient"/><radialGradient id="radial-gradient-91" cx="179.43" cy="233.55" r="120.02" gradientTransform="translate(5 5)" xlink:href="#radial-gradient"/><radialGradient id="radial-gradient-93" cx="179.43" cy="233.55" r="120.02" gradientTransform="translate(4 4)" xlink:href="#radial-gradient"/><radialGradient id="radial-gradient-95" cx="179.43" cy="233.55" r="120.02" gradientTransform="translate(3 3)" xlink:href="#radial-gradient"/><radialGradient id="radial-gradient-97" cx="179.43" cy="233.55" r="120.02" gradientTransform="translate(2 2)" xlink:href="#radial-gradient"/><radialGradient id="radial-gradient-99" cx="179.43" cy="233.55" r="120.02" gradientTransform="translate(1 1)" xlink:href="#radial-gradient"/><radialGradient id="radial-gradient-101" cx="179.43" cy="233.55" r="120.02" gradientTransform="matrix(1, 0, 0, 1, 0, 0)" xlink:href="#radial-gradient"/><linearGradient id="linear-gradient" x1="88.91" y1="199.17" x2="421.73" y2="341.26" gradientUnits="userSpaceOnUse"><stop offset="0" stop-color="#fff"/><stop offset="0.12" stop-color="#d4d4d4"/><stop offset="0.26" stop-color="#a7a7a7"/><stop offset="0.4" stop-color="#818181"/><stop offset="0.55" stop-color="#646464"/><stop offset="0.69" stop-color="#4f4f4f"/><stop offset="0.83" stop-color="#424242"/><stop offset="0.96" stop-color="#3e3e3e"/></linearGradient><linearGradient id="Degradado_sin_nombre_1110" x1="-1163.21" y1="765.79" x2="-1235.95" y2="547.15" gradientTransform="matrix(-0.85, -0.52, -0.52, 0.85, -379.91, -1032.3)" gradientUnits="userSpaceOnUse"><stop offset="0" stop-color="#d1565b"/><stop offset="0.19" stop-color="#ad354e"/><stop offset="0.84" stop-color="#642535"/></linearGradient><linearGradient id="Degradado_sin_nombre_3" x1="402.81" y1="-17.26" x2="659.7" y2="198.3" gradientTransform="matrix(0.85, 0.52, 0.52, -0.85, -315.43, 186.59)" gradientUnits="userSpaceOnUse"><stop offset="0.16" stop-color="#642535"/><stop offset="0.81" stop-color="#ad354e"/><stop offset="1" stop-color="#d1565b"/></linearGradient><linearGradient id="Degradado_sin_nombre_1108" x1="406.37" y1="648.67" x2="663.25" y2="864.22" gradientTransform="matrix(0.91, 0.42, -0.42, 0.91, 141.52, -751.29)" gradientUnits="userSpaceOnUse"><stop offset="0" stop-color="#ffc2a7"/><stop offset="0.09" stop-color="#ffae8f" stop-opacity="0.97"/><stop offset="0.21" stop-color="#ff9976" stop-opacity="0.93"/><stop offset="0.31" stop-color="#ff8c66" stop-opacity="0.91"/><stop offset="0.39" stop-color="#ff8761" stop-opacity="0.9"/><stop offset="0.68" stop-color="#ff455b" stop-opacity="0.65"/><stop offset="1" stop-color="#a83758" stop-opacity="0.9"/></linearGradient><linearGradient id="Degradado_sin_nombre_2" x1="-1235.19" y1="-112.54" x2="-978.31" y2="103.01" gradientTransform="matrix(-0.91, -0.42, 0.42, -0.91, -836.87, -94.43)" gradientUnits="userSpaceOnUse"><stop offset="0" stop-color="#a83758" stop-opacity="0.9"/><stop offset="0.32" stop-color="#ff455b" stop-opacity="0.65"/><stop offset="0.72" stop-color="#ff8761" stop-opacity="0.9"/><stop offset="0.78" stop-color="#ff8c66" stop-opacity="0.91"/><stop offset="0.85" stop-color="#ff9976" stop-opacity="0.93"/><stop offset="0.94" stop-color="#ffae8f" stop-opacity="0.97"/><stop offset="1" stop-color="#ffc2a7"/></linearGradient><linearGradient id="Degradado_sin_nombre_1130" x1="2171.29" y1="4433.77" x2="2504.52" y2="4767.01" gradientTransform="translate(3509.69 -3720.41) rotate(66.31)" gradientUnits="userSpaceOnUse"><stop offset="0" stop-color="#fff"/><stop offset="0" stop-color="#fffefe" stop-opacity="0.98"/><stop offset="0.02" stop-color="#fff2ec" stop-opacity="0.78"/><stop offset="0.03" stop-color="#ffe6db" stop-opacity="0.6"/><stop offset="0.05" stop-color="#ffddcd" stop-opacity="0.44"/><stop offset="0.07" stop-color="#ffd4c1" stop-opacity="0.3"/><stop offset="0.09" stop-color="#ffceb8" stop-opacity="0.19"/><stop offset="0.11" stop-color="#ffc8b0" stop-opacity="0.11"/><stop offset="0.13" stop-color="#ffc5ab" stop-opacity="0.05"/><stop offset="0.16" stop-color="#ffc3a8" stop-opacity="0.01"/><stop offset="0.19" stop-color="#ffc2a7" stop-opacity="0"/></linearGradient><linearGradient id="Degradado_sin_nombre_1135" x1="2150.37" y1="2707.97" x2="2483.61" y2="3041.21" gradientTransform="translate(3734.2 1449.1) rotate(147.52)" gradientUnits="userSpaceOnUse"><stop offset="0" stop-color="#fad49a"/><stop offset="0.01" stop-color="#fad49a" stop-opacity="0.79"/><stop offset="0.03" stop-color="#fad49a" stop-opacity="0.61"/><stop offset="0.05" stop-color="#fad49a" stop-opacity="0.44"/><stop offset="0.06" stop-color="#fad49a" stop-opacity="0.31"/><stop offset="0.08" stop-color="#fad49a" stop-opacity="0.19"/><stop offset="0.1" stop-color="#fad49a" stop-opacity="0.11"/><stop offset="0.12" stop-color="#fad49a" stop-opacity="0.05"/><stop offset="0.14" stop-color="#fad49a" stop-opacity="0.01"/><stop offset="0.18" stop-color="#fad49a" stop-opacity="0"/></linearGradient></defs><g class="cls-1"><g id="Layer_1" data-name="Layer 1"><text x="11.81" y="5.43"/><g class="cls-2"><path class="cls-3" d="M182,240.81l60.48,94V239.94q0-9.25,3.86-13.88a12.89,12.89,0,0,1,10.43-4.62,13.29,13.29,0,0,1,10.7,4.62q3.91,4.63,3.92,13.88V365.39q0,21-16.95,21a21.75,21.75,0,0,1-7.62-1.25,19.13,19.13,0,0,1-6.36-4,38.27,38.27,0,0,1-5.5-6.36q-2.55-3.65-5.09-7.46l-59-92.91v93.46q0,9.14-4.13,13.82a13.5,13.5,0,0,1-10.59,4.67,13.32,13.32,0,0,1-10.69-4.73q-4-4.72-4-13.76V244.83q0-7.83,1.7-12.29a17.39,17.39,0,0,1,6.67-8,17.8,17.8,0,0,1,10.06-3.1,17.09,17.09,0,0,1,7.26,1.41,17.73,17.73,0,0,1,5.29,3.81,39.74,39.74,0,0,1,4.66,6.2Q179.42,236.67,182,240.81Z" transform="translate(11.81 5.43)"/><path class="cls-3" d="M325.24,224.16h41q16,0,27.43,3.05a50,50,0,0,1,20.75,11.42q24.25,21.33,24.25,64.85a131,131,0,0,1-2.43,26.22,79,79,0,0,1-7.52,21.38,66.18,66.18,0,0,1-13,17A53.77,53.77,0,0,1,402,377.35a60.12,60.12,0,0,1-15.94,4.9,118.49,118.49,0,0,1-19.22,1.41h-41q-8.58,0-12.92-2.66a12.34,12.34,0,0,1-5.67-7.51A49.08,49.08,0,0,1,306,360.92V244q0-10.44,4.55-15.12T325.24,224.16Zm12.18,25.57V358h23.83q7.83,0,12.28-.44a37.55,37.55,0,0,0,9.22-2.17,25.08,25.08,0,0,0,8.26-4.9q15.78-13.71,15.78-47.22,0-23.61-6.94-35.36t-17.1-15q-10.17-3.21-24.57-3.21Z" transform="translate(11.81 5.43)"/><path class="cls-4" d="M181,239.81l60.48,94V238.94q0-9.25,3.86-13.88a12.89,12.89,0,0,1,10.43-4.62,13.29,13.29,0,0,1,10.7,4.62q3.91,4.63,3.92,13.88V364.39q0,21-16.95,21a21.75,21.75,0,0,1-7.62-1.25,19.13,19.13,0,0,1-6.36-4,38.27,38.27,0,0,1-5.5-6.36q-2.55-3.65-5.09-7.46l-59-92.91v93.46q0,9.14-4.13,13.82a13.5,13.5,0,0,1-10.59,4.67,13.32,13.32,0,0,1-10.69-4.73q-4-4.72-4-13.76V243.83q0-7.83,1.7-12.29a17.39,17.39,0,0,1,6.67-8,17.8,17.8,0,0,1,10.06-3.1,17.09,17.09,0,0,1,7.26,1.41,17.73,17.73,0,0,1,5.29,3.81,39.74,39.74,0,0,1,4.66,6.2Q178.42,235.67,181,239.81Z" transform="translate(11.81 5.43)"/><path class="cls-4" d="M324.24,223.16h41q16,0,27.43,3.05a50,50,0,0,1,20.75,11.42q24.25,21.33,24.25,64.85a131,131,0,0,1-2.43,26.22,79,79,0,0,1-7.52,21.38,66.18,66.18,0,0,1-13,17A53.77,53.77,0,0,1,401,376.35a60.12,60.12,0,0,1-15.94,4.9,118.49,118.49,0,0,1-19.22,1.41h-41q-8.58,0-12.92-2.66a12.34,12.34,0,0,1-5.67-7.51A49.08,49.08,0,0,1,305,359.92V243q0-10.44,4.55-15.12T324.24,223.16Zm12.18,25.57V357h23.83q7.83,0,12.28-.44a37.55,37.55,0,0,0,9.22-2.17,25.08,25.08,0,0,0,8.26-4.9q15.78-13.71,15.78-47.22,0-23.61-6.94-35.36t-17.1-15q-10.17-3.21-24.57-3.21Z" transform="translate(11.81 5.43)"/><path class="cls-5" d="M180,238.81l60.48,94V237.94q0-9.25,3.86-13.88a12.89,12.89,0,0,1,10.43-4.62,13.29,13.29,0,0,1,10.7,4.62q3.91,4.63,3.92,13.88V363.39q0,21-16.95,21a21.75,21.75,0,0,1-7.62-1.25,19.13,19.13,0,0,1-6.36-4,38.27,38.27,0,0,1-5.5-6.36q-2.55-3.65-5.09-7.46l-59-92.91v93.46q0,9.14-4.13,13.82a13.5,13.5,0,0,1-10.59,4.67,13.32,13.32,0,0,1-10.69-4.73q-4-4.72-4-13.76V242.83q0-7.83,1.7-12.29a17.39,17.39,0,0,1,6.67-8,17.8,17.8,0,0,1,10.06-3.1,17.09,17.09,0,0,1,7.26,1.41,17.73,17.73,0,0,1,5.29,3.81,39.74,39.74,0,0,1,4.66,6.2Q177.42,234.67,180,238.81Z" transform="translate(11.81 5.43)"/><path class="cls-5" d="M323.24,222.16h41q16,0,27.43,3.05a50,50,0,0,1,20.75,11.42q24.25,21.33,24.25,64.85a131,131,0,0,1-2.43,26.22,79,79,0,0,1-7.52,21.38,66.18,66.18,0,0,1-13,17A53.77,53.77,0,0,1,400,375.35a60.12,60.12,0,0,1-15.94,4.9,118.49,118.49,0,0,1-19.22,1.41h-41q-8.58,0-12.92-2.66a12.34,12.34,0,0,1-5.67-7.51A49.08,49.08,0,0,1,304,358.92V242q0-10.44,4.55-15.12T323.24,222.16Zm12.18,25.57V356h23.83q7.83,0,12.28-.44a37.55,37.55,0,0,0,9.22-2.17,25.08,25.08,0,0,0,8.26-4.9q15.78-13.71,15.78-47.22,0-23.61-6.94-35.36t-17.1-15q-10.17-3.21-24.57-3.21Z" transform="translate(11.81 5.43)"/><path class="cls-6" d="M179,237.81l60.48,94V236.94q0-9.25,3.86-13.88a12.89,12.89,0,0,1,10.43-4.62,13.29,13.29,0,0,1,10.7,4.62q3.91,4.63,3.92,13.88V362.39q0,21-16.95,21a21.75,21.75,0,0,1-7.62-1.25,19.13,19.13,0,0,1-6.36-4,38.27,38.27,0,0,1-5.5-6.36q-2.55-3.65-5.09-7.46l-59-92.91v93.46q0,9.14-4.13,13.82a13.5,13.5,0,0,1-10.59,4.67,13.32,13.32,0,0,1-10.69-4.73q-4-4.72-4-13.76V241.83q0-7.83,1.7-12.29a17.39,17.39,0,0,1,6.67-8,17.8,17.8,0,0,1,10.06-3.1,17.09,17.09,0,0,1,7.26,1.41,17.73,17.73,0,0,1,5.29,3.81,39.74,39.74,0,0,1,4.66,6.2Q176.42,233.67,179,237.81Z" transform="translate(11.81 5.43)"/><path class="cls-6" d="M322.24,221.16h41q16,0,27.43,3.05a50,50,0,0,1,20.75,11.42q24.25,21.33,24.25,64.85a131,131,0,0,1-2.43,26.22,79,79,0,0,1-7.52,21.38,66.18,66.18,0,0,1-13,17A53.77,53.77,0,0,1,399,374.35a60.12,60.12,0,0,1-15.94,4.9,118.49,118.49,0,0,1-19.22,1.41h-41q-8.58,0-12.92-2.66a12.34,12.34,0,0,1-5.67-7.51A49.08,49.08,0,0,1,303,357.92V241q0-10.44,4.55-15.12T322.24,221.16Zm12.18,25.57V355h23.83q7.83,0,12.28-.44a37.55,37.55,0,0,0,9.22-2.17,25.08,25.08,0,0,0,8.26-4.9q15.78-13.71,15.78-47.22,0-23.61-6.94-35.36t-17.1-15q-10.17-3.21-24.57-3.21Z" transform="translate(11.81 5.43)"/><path class="cls-7" d="M178,236.81l60.48,94V235.94q0-9.25,3.86-13.88a12.89,12.89,0,0,1,10.43-4.62,13.29,13.29,0,0,1,10.7,4.62q3.91,4.63,3.92,13.88V361.39q0,21-16.95,21a21.75,21.75,0,0,1-7.62-1.25,19.13,19.13,0,0,1-6.36-4,38.27,38.27,0,0,1-5.5-6.36q-2.55-3.65-5.09-7.46l-59-92.91v93.46q0,9.14-4.13,13.82a13.5,13.5,0,0,1-10.59,4.67,13.32,13.32,0,0,1-10.69-4.73q-4-4.72-4-13.76V240.83q0-7.83,1.7-12.29a17.39,17.39,0,0,1,6.67-8,17.8,17.8,0,0,1,10.06-3.1,17.09,17.09,0,0,1,7.26,1.41,17.73,17.73,0,0,1,5.29,3.81,39.74,39.74,0,0,1,4.66,6.2Q175.42,232.67,178,236.81Z" transform="translate(11.81 5.43)"/><path class="cls-7" d="M321.24,220.16h41q16,0,27.43,3.05a50,50,0,0,1,20.75,11.42q24.25,21.33,24.25,64.85a131,131,0,0,1-2.43,26.22,79,79,0,0,1-7.52,21.38,66.18,66.18,0,0,1-13,17A53.77,53.77,0,0,1,398,373.35a60.12,60.12,0,0,1-15.94,4.9,118.49,118.49,0,0,1-19.22,1.41h-41q-8.58,0-12.92-2.66a12.34,12.34,0,0,1-5.67-7.51A49.08,49.08,0,0,1,302,356.92V240q0-10.44,4.55-15.12T321.24,220.16Zm12.18,25.57V354h23.83q7.83,0,12.28-.44a37.55,37.55,0,0,0,9.22-2.17,25.08,25.08,0,0,0,8.26-4.9q15.78-13.71,15.78-47.22,0-23.61-6.94-35.36t-17.1-15q-10.17-3.21-24.57-3.21Z" transform="translate(11.81 5.43)"/><path class="cls-8" d="M177,235.81l60.48,94V234.94q0-9.25,3.86-13.88a12.89,12.89,0,0,1,10.43-4.62,13.29,13.29,0,0,1,10.7,4.62q3.91,4.63,3.92,13.88V360.39q0,21-16.95,21a21.75,21.75,0,0,1-7.62-1.25,19.13,19.13,0,0,1-6.36-4,38.27,38.27,0,0,1-5.5-6.36q-2.55-3.65-5.09-7.46l-59-92.91v93.46q0,9.14-4.13,13.82a13.5,13.5,0,0,1-10.59,4.67,13.32,13.32,0,0,1-10.69-4.73q-4-4.72-4-13.76V239.83q0-7.83,1.7-12.29a17.39,17.39,0,0,1,6.67-8,17.8,17.8,0,0,1,10.06-3.1,17.09,17.09,0,0,1,7.26,1.41,17.73,17.73,0,0,1,5.29,3.81,39.74,39.74,0,0,1,4.66,6.2Q174.42,231.67,177,235.81Z" transform="translate(11.81 5.43)"/><path class="cls-8" d="M320.24,219.16h41q16,0,27.43,3.05a50,50,0,0,1,20.75,11.42q24.25,21.33,24.25,64.85a131,131,0,0,1-2.43,26.22,79,79,0,0,1-7.52,21.38,66.18,66.18,0,0,1-13,17A53.77,53.77,0,0,1,397,372.35a60.12,60.12,0,0,1-15.94,4.9,118.49,118.49,0,0,1-19.22,1.41h-41q-8.58,0-12.92-2.66a12.34,12.34,0,0,1-5.67-7.51A49.08,49.08,0,0,1,301,355.92V239q0-10.44,4.55-15.12T320.24,219.16Zm12.18,25.57V353h23.83q7.83,0,12.28-.44a37.55,37.55,0,0,0,9.22-2.17,25.08,25.08,0,0,0,8.26-4.9q15.78-13.71,15.78-47.22,0-23.61-6.94-35.36t-17.1-15q-10.17-3.21-24.57-3.21Z" transform="translate(11.81 5.43)"/><path class="cls-9" d="M176,234.81l60.48,94V233.94q0-9.25,3.86-13.88a12.89,12.89,0,0,1,10.43-4.62,13.29,13.29,0,0,1,10.7,4.62q3.91,4.63,3.92,13.88V359.39q0,21-16.95,21a21.75,21.75,0,0,1-7.62-1.25,19.13,19.13,0,0,1-6.36-4,38.27,38.27,0,0,1-5.5-6.36q-2.55-3.65-5.09-7.46l-59-92.91v93.46q0,9.14-4.13,13.82a13.5,13.5,0,0,1-10.59,4.67,13.32,13.32,0,0,1-10.69-4.73q-4-4.72-4-13.76V238.83q0-7.83,1.7-12.29a17.39,17.39,0,0,1,6.67-8,17.8,17.8,0,0,1,10.06-3.1,17.09,17.09,0,0,1,7.26,1.41,17.73,17.73,0,0,1,5.29,3.81,39.74,39.74,0,0,1,4.66,6.2Q173.42,230.67,176,234.81Z" transform="translate(11.81 5.43)"/><path class="cls-9" d="M319.24,218.16h41q16,0,27.43,3.05a50,50,0,0,1,20.75,11.42q24.25,21.33,24.25,64.85a131,131,0,0,1-2.43,26.22,79,79,0,0,1-7.52,21.38,66.18,66.18,0,0,1-13,17A53.77,53.77,0,0,1,396,371.35a60.12,60.12,0,0,1-15.94,4.9,118.49,118.49,0,0,1-19.22,1.41h-41q-8.58,0-12.92-2.66a12.34,12.34,0,0,1-5.67-7.51A49.08,49.08,0,0,1,300,354.92V238q0-10.44,4.55-15.12T319.24,218.16Zm12.18,25.57V352h23.83q7.83,0,12.28-.44a37.55,37.55,0,0,0,9.22-2.17,25.08,25.08,0,0,0,8.26-4.9q15.78-13.71,15.78-47.22,0-23.61-6.94-35.36t-17.1-15q-10.17-3.21-24.57-3.21Z" transform="translate(11.81 5.43)"/><path class="cls-10" d="M175,233.81l60.48,94V232.94q0-9.25,3.86-13.88a12.89,12.89,0,0,1,10.43-4.62,13.29,13.29,0,0,1,10.7,4.62q3.91,4.63,3.92,13.88V358.39q0,21-16.95,21a21.75,21.75,0,0,1-7.62-1.25,19.13,19.13,0,0,1-6.36-4,38.27,38.27,0,0,1-5.5-6.36q-2.55-3.65-5.09-7.46l-59-92.91v93.46q0,9.14-4.13,13.82a13.5,13.5,0,0,1-10.59,4.67,13.32,13.32,0,0,1-10.69-4.73q-4-4.72-4-13.76V237.83q0-7.83,1.7-12.29a17.39,17.39,0,0,1,6.67-8,17.8,17.8,0,0,1,10.06-3.1,17.09,17.09,0,0,1,7.26,1.41,17.73,17.73,0,0,1,5.29,3.81,39.74,39.74,0,0,1,4.66,6.2Q172.42,229.67,175,233.81Z" transform="translate(11.81 5.43)"/><path class="cls-10" d="M318.24,217.16h41q16,0,27.43,3.05a50,50,0,0,1,20.75,11.42q24.25,21.33,24.25,64.85a131,131,0,0,1-2.43,26.22,79,79,0,0,1-7.52,21.38,66.18,66.18,0,0,1-13,17A53.77,53.77,0,0,1,395,370.35a60.12,60.12,0,0,1-15.94,4.9,118.49,118.49,0,0,1-19.22,1.41h-41q-8.58,0-12.92-2.66a12.34,12.34,0,0,1-5.67-7.51A49.08,49.08,0,0,1,299,353.92V237q0-10.44,4.55-15.12T318.24,217.16Zm12.18,25.57V351h23.83q7.83,0,12.28-.44a37.55,37.55,0,0,0,9.22-2.17,25.08,25.08,0,0,0,8.26-4.9q15.78-13.71,15.78-47.22,0-23.61-6.94-35.36t-17.1-15q-10.17-3.21-24.57-3.21Z" transform="translate(11.81 5.43)"/><path class="cls-11" d="M174,232.81l60.48,94V231.94q0-9.25,3.86-13.88a12.89,12.89,0,0,1,10.43-4.62,13.29,13.29,0,0,1,10.7,4.62q3.91,4.63,3.92,13.88V357.39q0,21-16.95,21a21.75,21.75,0,0,1-7.62-1.25,19.13,19.13,0,0,1-6.36-4,38.27,38.27,0,0,1-5.5-6.36q-2.55-3.65-5.09-7.46l-59-92.91v93.46q0,9.14-4.13,13.82a13.5,13.5,0,0,1-10.59,4.67,13.32,13.32,0,0,1-10.69-4.73q-4-4.72-4-13.76V236.83q0-7.83,1.7-12.29a17.39,17.39,0,0,1,6.67-8,17.8,17.8,0,0,1,10.06-3.1,17.09,17.09,0,0,1,7.26,1.41,17.73,17.73,0,0,1,5.29,3.81,39.74,39.74,0,0,1,4.66,6.2Q171.42,228.67,174,232.81Z" transform="translate(11.81 5.43)"/><path class="cls-11" d="M317.24,216.16h41q16,0,27.43,3.05a50,50,0,0,1,20.75,11.42q24.25,21.33,24.25,64.85a131,131,0,0,1-2.43,26.22,79,79,0,0,1-7.52,21.38,66.18,66.18,0,0,1-13,17A53.77,53.77,0,0,1,394,369.35a60.12,60.12,0,0,1-15.94,4.9,118.49,118.49,0,0,1-19.22,1.41h-41q-8.58,0-12.92-2.66a12.34,12.34,0,0,1-5.67-7.51A49.08,49.08,0,0,1,298,352.92V236q0-10.44,4.55-15.12T317.24,216.16Zm12.18,25.57V350h23.83q7.83,0,12.28-.44a37.55,37.55,0,0,0,9.22-2.17,25.08,25.08,0,0,0,8.26-4.9q15.78-13.71,15.78-47.22,0-23.61-6.94-35.36t-17.1-15q-10.17-3.21-24.57-3.21Z" transform="translate(11.81 5.43)"/><path class="cls-12" d="M173,231.81l60.48,94V230.94q0-9.25,3.86-13.88a12.89,12.89,0,0,1,10.43-4.62,13.29,13.29,0,0,1,10.7,4.62q3.91,4.63,3.92,13.88V356.39q0,21-16.95,21a21.75,21.75,0,0,1-7.62-1.25,19.13,19.13,0,0,1-6.36-4,38.27,38.27,0,0,1-5.5-6.36q-2.55-3.65-5.09-7.46l-59-92.91v93.46q0,9.14-4.13,13.82a13.5,13.5,0,0,1-10.59,4.67,13.32,13.32,0,0,1-10.69-4.73q-4-4.72-4-13.76V235.83q0-7.83,1.7-12.29a17.39,17.39,0,0,1,6.67-8,17.8,17.8,0,0,1,10.06-3.1,17.09,17.09,0,0,1,7.26,1.41,17.73,17.73,0,0,1,5.29,3.81,39.74,39.74,0,0,1,4.66,6.2Q170.42,227.67,173,231.81Z" transform="translate(11.81 5.43)"/><path class="cls-12" d="M316.24,215.16h41q16,0,27.43,3.05a50,50,0,0,1,20.75,11.42q24.25,21.33,24.25,64.85a131,131,0,0,1-2.43,26.22,79,79,0,0,1-7.52,21.38,66.18,66.18,0,0,1-13,17A53.77,53.77,0,0,1,393,368.35a60.12,60.12,0,0,1-15.94,4.9,118.49,118.49,0,0,1-19.22,1.41h-41q-8.58,0-12.92-2.66a12.34,12.34,0,0,1-5.67-7.51A49.08,49.08,0,0,1,297,351.92V235q0-10.44,4.55-15.12T316.24,215.16Zm12.18,25.57V349h23.83q7.83,0,12.28-.44a37.55,37.55,0,0,0,9.22-2.17,25.08,25.08,0,0,0,8.26-4.9q15.78-13.71,15.78-47.22,0-23.61-6.94-35.36t-17.1-15q-10.17-3.21-24.57-3.21Z" transform="translate(11.81 5.43)"/><path class="cls-13" d="M172,230.81l60.48,94V229.94q0-9.25,3.86-13.88a12.89,12.89,0,0,1,10.43-4.62,13.29,13.29,0,0,1,10.7,4.62q3.91,4.63,3.92,13.88V355.39q0,21-16.95,21a21.75,21.75,0,0,1-7.62-1.25,19.13,19.13,0,0,1-6.36-4,38.27,38.27,0,0,1-5.5-6.36q-2.55-3.65-5.09-7.46l-59-92.91v93.46q0,9.14-4.13,13.82a13.5,13.5,0,0,1-10.59,4.67,13.32,13.32,0,0,1-10.69-4.73q-4-4.72-4-13.76V234.83q0-7.83,1.7-12.29a17.39,17.39,0,0,1,6.67-8,17.8,17.8,0,0,1,10.06-3.1,17.09,17.09,0,0,1,7.26,1.41,17.73,17.73,0,0,1,5.29,3.81,39.74,39.74,0,0,1,4.66,6.2Q169.42,226.67,172,230.81Z" transform="translate(11.81 5.43)"/><path class="cls-13" d="M315.24,214.16h41q16,0,27.43,3.05a50,50,0,0,1,20.75,11.42q24.25,21.33,24.25,64.85a131,131,0,0,1-2.43,26.22,79,79,0,0,1-7.52,21.38,66.18,66.18,0,0,1-13,17A53.77,53.77,0,0,1,392,367.35a60.12,60.12,0,0,1-15.94,4.9,118.49,118.49,0,0,1-19.22,1.41h-41q-8.58,0-12.92-2.66a12.34,12.34,0,0,1-5.67-7.51A49.08,49.08,0,0,1,296,350.92V234q0-10.44,4.55-15.12T315.24,214.16Zm12.18,25.57V348h23.83q7.83,0,12.28-.44a37.55,37.55,0,0,0,9.22-2.17,25.08,25.08,0,0,0,8.26-4.9q15.78-13.71,15.78-47.22,0-23.61-6.94-35.36t-17.1-15q-10.17-3.21-24.57-3.21Z" transform="translate(11.81 5.43)"/><path class="cls-14" d="M171,229.81l60.48,94V228.94q0-9.25,3.86-13.88a12.89,12.89,0,0,1,10.43-4.62,13.29,13.29,0,0,1,10.7,4.62q3.91,4.63,3.92,13.88V354.39q0,21-16.95,21a21.75,21.75,0,0,1-7.62-1.25,19.13,19.13,0,0,1-6.36-4,38.27,38.27,0,0,1-5.5-6.36q-2.55-3.65-5.09-7.46l-59-92.91v93.46q0,9.14-4.13,13.82a13.5,13.5,0,0,1-10.59,4.67,13.32,13.32,0,0,1-10.69-4.73q-4-4.72-4-13.76V233.83q0-7.83,1.7-12.29a17.39,17.39,0,0,1,6.67-8,17.8,17.8,0,0,1,10.06-3.1,17.09,17.09,0,0,1,7.26,1.41,17.73,17.73,0,0,1,5.29,3.81,39.74,39.74,0,0,1,4.66,6.2Q168.42,225.67,171,229.81Z" transform="translate(11.81 5.43)"/><path class="cls-14" d="M314.24,213.16h41q16,0,27.43,3.05a50,50,0,0,1,20.75,11.42q24.25,21.33,24.25,64.85a131,131,0,0,1-2.43,26.22,79,79,0,0,1-7.52,21.38,66.18,66.18,0,0,1-13,17A53.77,53.77,0,0,1,391,366.35a60.12,60.12,0,0,1-15.94,4.9,118.49,118.49,0,0,1-19.22,1.41h-41q-8.58,0-12.92-2.66a12.34,12.34,0,0,1-5.67-7.51A49.08,49.08,0,0,1,295,349.92V233q0-10.44,4.55-15.12T314.24,213.16Zm12.18,25.57V347h23.83q7.83,0,12.28-.44a37.55,37.55,0,0,0,9.22-2.17,25.08,25.08,0,0,0,8.26-4.9q15.78-13.71,15.78-47.22,0-23.61-6.94-35.36t-17.1-15q-10.17-3.21-24.57-3.21Z" transform="translate(11.81 5.43)"/><path class="cls-15" d="M170,228.81l60.48,94V227.94q0-9.25,3.86-13.88a12.89,12.89,0,0,1,10.43-4.62,13.29,13.29,0,0,1,10.7,4.62q3.91,4.63,3.92,13.88V353.39q0,21-16.95,21a21.75,21.75,0,0,1-7.62-1.25,19.13,19.13,0,0,1-6.36-4,38.27,38.27,0,0,1-5.5-6.36q-2.55-3.65-5.09-7.46l-59-92.91v93.46q0,9.14-4.13,13.82a13.5,13.5,0,0,1-10.59,4.67,13.32,13.32,0,0,1-10.69-4.73q-4-4.72-4-13.76V232.83q0-7.83,1.7-12.29a17.39,17.39,0,0,1,6.67-8,17.8,17.8,0,0,1,10.06-3.1,17.09,17.09,0,0,1,7.26,1.41,17.73,17.73,0,0,1,5.29,3.81,39.74,39.74,0,0,1,4.66,6.2Q167.42,224.67,170,228.81Z" transform="translate(11.81 5.43)"/><path class="cls-15" d="M313.24,212.16h41q16,0,27.43,3.05a50,50,0,0,1,20.75,11.42q24.25,21.33,24.25,64.85a131,131,0,0,1-2.43,26.22,79,79,0,0,1-7.52,21.38,66.18,66.18,0,0,1-13,17A53.77,53.77,0,0,1,390,365.35a60.12,60.12,0,0,1-15.94,4.9,118.49,118.49,0,0,1-19.22,1.41h-41q-8.58,0-12.92-2.66a12.34,12.34,0,0,1-5.67-7.51A49.08,49.08,0,0,1,294,348.92V232q0-10.44,4.55-15.12T313.24,212.16Zm12.18,25.57V346h23.83q7.83,0,12.28-.44a37.55,37.55,0,0,0,9.22-2.17,25.08,25.08,0,0,0,8.26-4.9q15.78-13.71,15.78-47.22,0-23.61-6.94-35.36t-17.1-15q-10.17-3.21-24.57-3.21Z" transform="translate(11.81 5.43)"/><path class="cls-16" d="M169,227.81l60.48,94V226.94q0-9.25,3.86-13.88a12.89,12.89,0,0,1,10.43-4.62,13.29,13.29,0,0,1,10.7,4.62q3.91,4.63,3.92,13.88V352.39q0,21-16.95,21a21.75,21.75,0,0,1-7.62-1.25,19.13,19.13,0,0,1-6.36-4,38.27,38.27,0,0,1-5.5-6.36q-2.55-3.65-5.09-7.46l-59-92.91v93.46q0,9.14-4.13,13.82a13.5,13.5,0,0,1-10.59,4.67,13.32,13.32,0,0,1-10.69-4.73q-4-4.72-4-13.76V231.83q0-7.83,1.7-12.29a17.39,17.39,0,0,1,6.67-8,17.8,17.8,0,0,1,10.06-3.1,17.09,17.09,0,0,1,7.26,1.41,17.73,17.73,0,0,1,5.29,3.81,39.74,39.74,0,0,1,4.66,6.2Q166.42,223.67,169,227.81Z" transform="translate(11.81 5.43)"/><path class="cls-16" d="M312.24,211.16h41q16,0,27.43,3.05a50,50,0,0,1,20.75,11.42q24.25,21.33,24.25,64.85a131,131,0,0,1-2.43,26.22,79,79,0,0,1-7.52,21.38,66.18,66.18,0,0,1-13,17A53.77,53.77,0,0,1,389,364.35a60.12,60.12,0,0,1-15.94,4.9,118.49,118.49,0,0,1-19.22,1.41h-41q-8.58,0-12.92-2.66a12.34,12.34,0,0,1-5.67-7.51A49.08,49.08,0,0,1,293,347.92V231q0-10.44,4.55-15.12T312.24,211.16Zm12.18,25.57V345h23.83q7.83,0,12.28-.44a37.55,37.55,0,0,0,9.22-2.17,25.08,25.08,0,0,0,8.26-4.9q15.78-13.71,15.78-47.22,0-23.61-6.94-35.36t-17.1-15q-10.17-3.21-24.57-3.21Z" transform="translate(11.81 5.43)"/><path class="cls-17" d="M168,226.81l60.48,94V225.94q0-9.25,3.86-13.88a12.89,12.89,0,0,1,10.43-4.62,13.29,13.29,0,0,1,10.7,4.62q3.91,4.63,3.92,13.88V351.39q0,21-16.95,21a21.75,21.75,0,0,1-7.62-1.25,19.13,19.13,0,0,1-6.36-4,38.27,38.27,0,0,1-5.5-6.36q-2.55-3.65-5.09-7.46l-59-92.91v93.46q0,9.14-4.13,13.82a13.5,13.5,0,0,1-10.59,4.67,13.32,13.32,0,0,1-10.69-4.73q-4-4.72-4-13.76V230.83q0-7.83,1.7-12.29a17.39,17.39,0,0,1,6.67-8,17.8,17.8,0,0,1,10.06-3.1,17.09,17.09,0,0,1,7.26,1.41,17.73,17.73,0,0,1,5.29,3.81,39.74,39.74,0,0,1,4.66,6.2Q165.42,222.67,168,226.81Z" transform="translate(11.81 5.43)"/><path class="cls-17" d="M311.24,210.16h41q16,0,27.43,3.05a50,50,0,0,1,20.75,11.42q24.25,21.33,24.25,64.85a131,131,0,0,1-2.43,26.22,79,79,0,0,1-7.52,21.38,66.18,66.18,0,0,1-13,17A53.77,53.77,0,0,1,388,363.35a60.12,60.12,0,0,1-15.94,4.9,118.49,118.49,0,0,1-19.22,1.41h-41q-8.58,0-12.92-2.66a12.34,12.34,0,0,1-5.67-7.51A49.08,49.08,0,0,1,292,346.92V230q0-10.44,4.55-15.12T311.24,210.16Zm12.18,25.57V344h23.83q7.83,0,12.28-.44a37.55,37.55,0,0,0,9.22-2.17,25.08,25.08,0,0,0,8.26-4.9q15.78-13.71,15.78-47.22,0-23.61-6.94-35.36t-17.1-15q-10.17-3.21-24.57-3.21Z" transform="translate(11.81 5.43)"/><path class="cls-18" d="M167,225.81l60.48,94V224.94q0-9.25,3.86-13.88a12.89,12.89,0,0,1,10.43-4.62,13.29,13.29,0,0,1,10.7,4.62q3.92,4.63,3.92,13.88V350.39q0,21-16.95,21a21.75,21.75,0,0,1-7.62-1.25,19.13,19.13,0,0,1-6.36-4,38.27,38.27,0,0,1-5.5-6.36q-2.55-3.65-5.09-7.46l-59-92.91v93.46q0,9.14-4.13,13.82a13.5,13.5,0,0,1-10.59,4.67,13.32,13.32,0,0,1-10.69-4.73q-4-4.72-4-13.76V229.83q0-7.83,1.7-12.29a17.39,17.39,0,0,1,6.67-8,17.8,17.8,0,0,1,10.06-3.1,17.09,17.09,0,0,1,7.26,1.41,17.73,17.73,0,0,1,5.29,3.81,39.74,39.74,0,0,1,4.66,6.2Q164.42,221.67,167,225.81Z" transform="translate(11.81 5.43)"/><path class="cls-18" d="M310.24,209.16h41q16,0,27.43,3.05a50,50,0,0,1,20.75,11.42q24.25,21.33,24.25,64.85a131,131,0,0,1-2.43,26.22,79,79,0,0,1-7.52,21.38,66.18,66.18,0,0,1-13,17A53.77,53.77,0,0,1,387,362.35a60.12,60.12,0,0,1-15.94,4.9,118.49,118.49,0,0,1-19.22,1.41h-41q-8.58,0-12.92-2.66a12.34,12.34,0,0,1-5.67-7.51A49.08,49.08,0,0,1,291,345.92V229q0-10.44,4.55-15.12T310.24,209.16Zm12.18,25.57V343h23.83q7.83,0,12.28-.44a37.55,37.55,0,0,0,9.22-2.17,25.08,25.08,0,0,0,8.26-4.9q15.78-13.71,15.78-47.22,0-23.61-6.94-35.36t-17.1-15q-10.17-3.21-24.57-3.21Z" transform="translate(11.81 5.43)"/><path class="cls-19" d="M166,224.81l60.48,94V223.94q0-9.25,3.86-13.88a12.89,12.89,0,0,1,10.43-4.62,13.29,13.29,0,0,1,10.7,4.62q3.92,4.63,3.92,13.88V349.39q0,21-17,21a21.75,21.75,0,0,1-7.62-1.25,19.13,19.13,0,0,1-6.36-4,38.27,38.27,0,0,1-5.5-6.36q-2.55-3.65-5.09-7.46l-59-92.91v93.46q0,9.14-4.13,13.82a13.5,13.5,0,0,1-10.59,4.67,13.32,13.32,0,0,1-10.69-4.73q-4-4.72-4-13.76V228.83q0-7.83,1.7-12.29a17.39,17.39,0,0,1,6.67-8,17.8,17.8,0,0,1,10.06-3.1,17.09,17.09,0,0,1,7.26,1.41,17.73,17.73,0,0,1,5.29,3.81,39.74,39.74,0,0,1,4.66,6.2Q163.42,220.67,166,224.81Z" transform="translate(11.81 5.43)"/><path class="cls-19" d="M309.24,208.16h41q16,0,27.43,3.05a50,50,0,0,1,20.75,11.42q24.25,21.33,24.25,64.85a131,131,0,0,1-2.43,26.22,79,79,0,0,1-7.52,21.38,66.18,66.18,0,0,1-13,17A53.77,53.77,0,0,1,386,361.35a60.12,60.12,0,0,1-15.94,4.9,118.49,118.49,0,0,1-19.22,1.41h-41q-8.58,0-12.92-2.66a12.34,12.34,0,0,1-5.67-7.51A49.08,49.08,0,0,1,290,344.92V228q0-10.44,4.55-15.12T309.24,208.16Zm12.18,25.57V342h23.83q7.83,0,12.28-.44a37.55,37.55,0,0,0,9.22-2.17,25.08,25.08,0,0,0,8.26-4.9q15.78-13.71,15.78-47.22,0-23.61-6.94-35.36t-17.1-15q-10.17-3.21-24.57-3.21Z" transform="translate(11.81 5.43)"/><path class="cls-20" d="M165,223.81l60.48,94V222.94q0-9.25,3.86-13.88a12.89,12.89,0,0,1,10.43-4.62,13.29,13.29,0,0,1,10.7,4.62q3.92,4.63,3.92,13.88V348.39q0,21-17,21a21.75,21.75,0,0,1-7.62-1.25,19.13,19.13,0,0,1-6.36-4,38.27,38.27,0,0,1-5.5-6.36q-2.55-3.65-5.09-7.46l-59-92.91v93.46q0,9.14-4.13,13.82a13.5,13.5,0,0,1-10.59,4.67,13.32,13.32,0,0,1-10.69-4.73q-4-4.72-4-13.76V227.83q0-7.83,1.7-12.29a17.39,17.39,0,0,1,6.67-8,17.8,17.8,0,0,1,10.06-3.1,17.09,17.09,0,0,1,7.26,1.41,17.73,17.73,0,0,1,5.29,3.81,39.74,39.74,0,0,1,4.66,6.2Q162.42,219.67,165,223.81Z" transform="translate(11.81 5.43)"/><path class="cls-20" d="M308.24,207.16h41q16,0,27.43,3.05a50,50,0,0,1,20.75,11.42q24.25,21.33,24.25,64.85a131,131,0,0,1-2.43,26.22,79,79,0,0,1-7.52,21.38,66.18,66.18,0,0,1-13,17A53.77,53.77,0,0,1,385,360.35a60.12,60.12,0,0,1-15.94,4.9,118.49,118.49,0,0,1-19.22,1.41h-41q-8.58,0-12.92-2.66a12.34,12.34,0,0,1-5.67-7.51A49.08,49.08,0,0,1,289,343.92V227q0-10.44,4.55-15.12T308.24,207.16Zm12.18,25.57V341h23.83q7.83,0,12.28-.44a37.55,37.55,0,0,0,9.22-2.17,25.08,25.08,0,0,0,8.26-4.9q15.78-13.71,15.78-47.22,0-23.61-6.94-35.36t-17.1-15q-10.17-3.21-24.57-3.21Z" transform="translate(11.81 5.43)"/><path class="cls-21" d="M164,222.81l60.48,94V221.94q0-9.25,3.86-13.88a12.89,12.89,0,0,1,10.43-4.62,13.29,13.29,0,0,1,10.7,4.62q3.92,4.63,3.92,13.88V347.39q0,21-17,21a21.75,21.75,0,0,1-7.62-1.25,19.13,19.13,0,0,1-6.36-4,38.27,38.27,0,0,1-5.5-6.36q-2.55-3.65-5.09-7.46l-59-92.91v93.46q0,9.14-4.13,13.82a13.5,13.5,0,0,1-10.59,4.67,13.32,13.32,0,0,1-10.69-4.73q-4-4.72-4-13.76V226.83q0-7.83,1.7-12.29a17.39,17.39,0,0,1,6.67-8,17.8,17.8,0,0,1,10.06-3.1,17.09,17.09,0,0,1,7.26,1.41,17.73,17.73,0,0,1,5.29,3.81,39.74,39.74,0,0,1,4.66,6.2Q161.42,218.67,164,222.81Z" transform="translate(11.81 5.43)"/><path class="cls-21" d="M307.24,206.16h41q16,0,27.43,3.05a50,50,0,0,1,20.75,11.42q24.25,21.33,24.25,64.85a131,131,0,0,1-2.43,26.22,79,79,0,0,1-7.52,21.38,66.18,66.18,0,0,1-13,17A53.77,53.77,0,0,1,384,359.35a60.12,60.12,0,0,1-15.94,4.9,118.49,118.49,0,0,1-19.22,1.41h-41q-8.58,0-12.92-2.66a12.34,12.34,0,0,1-5.67-7.51A49.08,49.08,0,0,1,288,342.92V226q0-10.44,4.55-15.12T307.24,206.16Zm12.18,25.57V340h23.83q7.83,0,12.28-.44a37.55,37.55,0,0,0,9.22-2.17,25.08,25.08,0,0,0,8.26-4.9q15.78-13.71,15.78-47.22,0-23.61-6.94-35.36t-17.1-15q-10.17-3.21-24.57-3.21Z" transform="translate(11.81 5.43)"/><path class="cls-22" d="M163,221.81l60.48,94V220.94q0-9.25,3.86-13.88a12.89,12.89,0,0,1,10.43-4.62,13.29,13.29,0,0,1,10.7,4.62q3.92,4.63,3.92,13.88V346.39q0,21-17,21a21.75,21.75,0,0,1-7.62-1.25,19.13,19.13,0,0,1-6.36-4,38.27,38.27,0,0,1-5.5-6.36q-2.55-3.65-5.09-7.46l-59-92.91v93.46q0,9.14-4.13,13.82a13.5,13.5,0,0,1-10.59,4.67,13.32,13.32,0,0,1-10.69-4.73q-4-4.72-4-13.76V225.83q0-7.83,1.7-12.29a17.39,17.39,0,0,1,6.67-8,17.8,17.8,0,0,1,10.06-3.1,17.09,17.09,0,0,1,7.26,1.41,17.73,17.73,0,0,1,5.29,3.81,39.74,39.74,0,0,1,4.66,6.2Q160.42,217.67,163,221.81Z" transform="translate(11.81 5.43)"/><path class="cls-22" d="M306.24,205.16h41q16,0,27.43,3.05a50,50,0,0,1,20.75,11.42q24.25,21.33,24.25,64.85a131,131,0,0,1-2.43,26.22,79,79,0,0,1-7.52,21.38,66.18,66.18,0,0,1-13,17A53.77,53.77,0,0,1,383,358.35a60.12,60.12,0,0,1-15.94,4.9,118.49,118.49,0,0,1-19.22,1.41h-41q-8.58,0-12.92-2.66a12.34,12.34,0,0,1-5.67-7.51A49.08,49.08,0,0,1,287,341.92V225q0-10.44,4.55-15.12T306.24,205.16Zm12.18,25.57V339h23.83q7.83,0,12.28-.44a37.55,37.55,0,0,0,9.22-2.17,25.08,25.08,0,0,0,8.26-4.9q15.78-13.71,15.78-47.22,0-23.61-6.94-35.36t-17.1-15q-10.17-3.21-24.57-3.21Z" transform="translate(11.81 5.43)"/><path class="cls-23" d="M162,220.81l60.48,94V219.94q0-9.25,3.86-13.88a12.89,12.89,0,0,1,10.43-4.62,13.29,13.29,0,0,1,10.7,4.62q3.92,4.63,3.92,13.88V345.39q0,21-17,21a21.75,21.75,0,0,1-7.62-1.25,19.13,19.13,0,0,1-6.36-4,38.27,38.27,0,0,1-5.5-6.36q-2.55-3.65-5.09-7.46l-59-92.91v93.46q0,9.14-4.13,13.82a13.5,13.5,0,0,1-10.59,4.67,13.32,13.32,0,0,1-10.69-4.73q-4-4.72-4-13.76V224.83q0-7.83,1.7-12.29a17.39,17.39,0,0,1,6.67-8,17.8,17.8,0,0,1,10.06-3.1,17.09,17.09,0,0,1,7.26,1.41,17.73,17.73,0,0,1,5.29,3.81,39.74,39.74,0,0,1,4.66,6.2Q159.42,216.67,162,220.81Z" transform="translate(11.81 5.43)"/><path class="cls-23" d="M305.24,204.16h41q16,0,27.43,3.05a50,50,0,0,1,20.75,11.42q24.25,21.33,24.25,64.85a131,131,0,0,1-2.43,26.22,79,79,0,0,1-7.52,21.38,66.18,66.18,0,0,1-13,17A53.77,53.77,0,0,1,382,357.35a60.12,60.12,0,0,1-15.94,4.9,118.49,118.49,0,0,1-19.22,1.41h-41q-8.58,0-12.92-2.66a12.34,12.34,0,0,1-5.67-7.51A49.08,49.08,0,0,1,286,340.92V224q0-10.44,4.55-15.12T305.24,204.16Zm12.18,25.57V338h23.83q7.83,0,12.28-.44a37.55,37.55,0,0,0,9.22-2.17,25.08,25.08,0,0,0,8.26-4.9q15.78-13.71,15.78-47.22,0-23.61-6.94-35.36t-17.1-15q-10.17-3.21-24.57-3.21Z" transform="translate(11.81 5.43)"/><path class="cls-24" d="M161,219.81l60.48,94V218.94q0-9.25,3.86-13.88a12.89,12.89,0,0,1,10.43-4.62,13.29,13.29,0,0,1,10.7,4.62q3.92,4.63,3.92,13.88V344.39q0,21-17,21a21.75,21.75,0,0,1-7.62-1.25,19.13,19.13,0,0,1-6.36-4,38.27,38.27,0,0,1-5.5-6.36q-2.55-3.65-5.09-7.46l-59-92.91v93.46q0,9.14-4.13,13.82a13.5,13.5,0,0,1-10.59,4.67,13.32,13.32,0,0,1-10.69-4.73q-4-4.72-4-13.76V223.83q0-7.83,1.7-12.29a17.39,17.39,0,0,1,6.67-8,17.8,17.8,0,0,1,10.06-3.1,17.09,17.09,0,0,1,7.26,1.41,17.73,17.73,0,0,1,5.29,3.81,39.74,39.74,0,0,1,4.66,6.2Q158.42,215.67,161,219.81Z" transform="translate(11.81 5.43)"/><path class="cls-24" d="M304.24,203.16h41q16,0,27.43,3.05a50,50,0,0,1,20.75,11.42q24.25,21.33,24.25,64.85a131,131,0,0,1-2.43,26.22,79,79,0,0,1-7.52,21.38,66.18,66.18,0,0,1-13,17A53.77,53.77,0,0,1,381,356.35a60.12,60.12,0,0,1-15.94,4.9,118.49,118.49,0,0,1-19.22,1.41h-41q-8.58,0-12.92-2.66a12.34,12.34,0,0,1-5.67-7.51A49.08,49.08,0,0,1,285,339.92V223q0-10.44,4.55-15.12T304.24,203.16Zm12.18,25.57V337h23.83q7.83,0,12.28-.44a37.55,37.55,0,0,0,9.22-2.17,25.08,25.08,0,0,0,8.26-4.9q15.78-13.71,15.78-47.22,0-23.61-6.94-35.36t-17.1-15q-10.17-3.21-24.57-3.21Z" transform="translate(11.81 5.43)"/><path class="cls-25" d="M160,218.81l60.48,94V217.94q0-9.25,3.86-13.88a12.89,12.89,0,0,1,10.43-4.62,13.29,13.29,0,0,1,10.7,4.62q3.92,4.63,3.92,13.88V343.39q0,21-17,21a21.75,21.75,0,0,1-7.62-1.25,19.13,19.13,0,0,1-6.36-4,38.27,38.27,0,0,1-5.5-6.36q-2.55-3.65-5.09-7.46l-59-92.91v93.46q0,9.14-4.13,13.82a13.5,13.5,0,0,1-10.59,4.67,13.32,13.32,0,0,1-10.69-4.73q-4-4.72-4-13.76V222.83q0-7.83,1.7-12.29a17.39,17.39,0,0,1,6.67-8,17.8,17.8,0,0,1,10.06-3.1,17.09,17.09,0,0,1,7.26,1.41,17.73,17.73,0,0,1,5.29,3.81,39.74,39.74,0,0,1,4.66,6.2Q157.42,214.67,160,218.81Z" transform="translate(11.81 5.43)"/><path class="cls-25" d="M303.24,202.16h41q16,0,27.43,3.05a50,50,0,0,1,20.75,11.42q24.25,21.33,24.25,64.85a131,131,0,0,1-2.43,26.22,79,79,0,0,1-7.52,21.38,66.18,66.18,0,0,1-13,17A53.77,53.77,0,0,1,380,355.35a60.12,60.12,0,0,1-15.94,4.9,118.49,118.49,0,0,1-19.22,1.41h-41q-8.58,0-12.92-2.66a12.34,12.34,0,0,1-5.67-7.51A49.08,49.08,0,0,1,284,338.92V222q0-10.44,4.55-15.12T303.24,202.16Zm12.18,25.57V336h23.83q7.83,0,12.28-.44a37.55,37.55,0,0,0,9.22-2.17,25.08,25.08,0,0,0,8.26-4.9q15.78-13.71,15.78-47.22,0-23.61-6.94-35.36t-17.1-15q-10.17-3.21-24.57-3.21Z" transform="translate(11.81 5.43)"/><path class="cls-26" d="M159,217.81l60.48,94V216.94q0-9.25,3.86-13.88a12.89,12.89,0,0,1,10.43-4.62,13.29,13.29,0,0,1,10.7,4.62q3.92,4.63,3.92,13.88V342.39q0,21-17,21a21.75,21.75,0,0,1-7.62-1.25,19.13,19.13,0,0,1-6.36-4,38.27,38.27,0,0,1-5.5-6.36q-2.55-3.65-5.09-7.46l-59-92.91v93.46q0,9.14-4.13,13.82a13.5,13.5,0,0,1-10.59,4.67,13.32,13.32,0,0,1-10.69-4.73q-4-4.72-4-13.76V221.83q0-7.83,1.7-12.29a17.39,17.39,0,0,1,6.67-8,17.8,17.8,0,0,1,10.06-3.1,17.09,17.09,0,0,1,7.26,1.41,17.73,17.73,0,0,1,5.29,3.81,39.74,39.74,0,0,1,4.66,6.2Q156.42,213.67,159,217.81Z" transform="translate(11.81 5.43)"/><path class="cls-26" d="M302.24,201.16h41q16,0,27.43,3.05a50,50,0,0,1,20.75,11.42q24.25,21.33,24.25,64.85a131,131,0,0,1-2.43,26.22,79,79,0,0,1-7.52,21.38,66.18,66.18,0,0,1-13,17A53.77,53.77,0,0,1,379,354.35a60.12,60.12,0,0,1-15.94,4.9,118.49,118.49,0,0,1-19.22,1.41h-41q-8.58,0-12.92-2.66a12.34,12.34,0,0,1-5.67-7.51A49.08,49.08,0,0,1,283,337.92V221q0-10.44,4.55-15.12T302.24,201.16Zm12.18,25.57V335h23.83q7.83,0,12.28-.44a37.55,37.55,0,0,0,9.22-2.17,25.08,25.08,0,0,0,8.26-4.9q15.78-13.71,15.78-47.22,0-23.61-6.94-35.36t-17.1-15q-10.17-3.21-24.57-3.21Z" transform="translate(11.81 5.43)"/><path class="cls-27" d="M158,216.81l60.48,94V215.94q0-9.25,3.86-13.88a12.89,12.89,0,0,1,10.43-4.62,13.29,13.29,0,0,1,10.7,4.62q3.92,4.63,3.92,13.88V341.39q0,21-17,21a21.75,21.75,0,0,1-7.62-1.25,19.13,19.13,0,0,1-6.36-4,38.27,38.27,0,0,1-5.5-6.36q-2.55-3.65-5.09-7.46l-59-92.91v93.46q0,9.14-4.13,13.82a13.5,13.5,0,0,1-10.59,4.67,13.32,13.32,0,0,1-10.69-4.73q-4-4.72-4-13.76V220.83q0-7.83,1.7-12.29a17.39,17.39,0,0,1,6.67-8,17.8,17.8,0,0,1,10.06-3.1,17.09,17.09,0,0,1,7.26,1.41,17.73,17.73,0,0,1,5.29,3.81,39.74,39.74,0,0,1,4.66,6.2Q155.42,212.67,158,216.81Z" transform="translate(11.81 5.43)"/><path class="cls-27" d="M301.24,200.16h41q16,0,27.43,3.05a50,50,0,0,1,20.75,11.42q24.25,21.33,24.25,64.85a131,131,0,0,1-2.43,26.22,79,79,0,0,1-7.52,21.38,66.18,66.18,0,0,1-13,17A53.77,53.77,0,0,1,378,353.35a60.12,60.12,0,0,1-15.94,4.9,118.49,118.49,0,0,1-19.22,1.41h-41q-8.58,0-12.92-2.66a12.34,12.34,0,0,1-5.67-7.51A49.08,49.08,0,0,1,282,336.92V220q0-10.44,4.55-15.12T301.24,200.16Zm12.18,25.57V334h23.83q7.83,0,12.28-.44a37.55,37.55,0,0,0,9.22-2.17,25.08,25.08,0,0,0,8.26-4.9q15.78-13.71,15.78-47.22,0-23.61-6.94-35.36t-17.1-15q-10.17-3.21-24.57-3.21Z" transform="translate(11.81 5.43)"/><path class="cls-28" d="M157,215.81l60.48,94V214.94q0-9.25,3.86-13.88a12.89,12.89,0,0,1,10.43-4.62,13.29,13.29,0,0,1,10.7,4.62q3.92,4.63,3.92,13.88V340.39q0,21-17,21a21.75,21.75,0,0,1-7.62-1.25,19.13,19.13,0,0,1-6.36-4,38.27,38.27,0,0,1-5.5-6.36q-2.55-3.65-5.09-7.46l-59-92.91v93.46q0,9.14-4.13,13.82a13.5,13.5,0,0,1-10.59,4.67,13.32,13.32,0,0,1-10.69-4.73q-4-4.72-4-13.76V219.83q0-7.83,1.7-12.29a17.39,17.39,0,0,1,6.67-8,17.8,17.8,0,0,1,10.06-3.1,17.09,17.09,0,0,1,7.26,1.41,17.73,17.73,0,0,1,5.29,3.81,39.74,39.74,0,0,1,4.66,6.2Q154.42,211.67,157,215.81Z" transform="translate(11.81 5.43)"/><path class="cls-28" d="M300.24,199.16h41q16,0,27.43,3.05a50,50,0,0,1,20.75,11.42q24.25,21.33,24.25,64.85a131,131,0,0,1-2.43,26.22,79,79,0,0,1-7.52,21.38,66.18,66.18,0,0,1-13,17A53.77,53.77,0,0,1,377,352.35a60.12,60.12,0,0,1-15.94,4.9,118.49,118.49,0,0,1-19.22,1.41h-41q-8.58,0-12.92-2.66a12.34,12.34,0,0,1-5.67-7.51A49.08,49.08,0,0,1,281,335.92V219q0-10.44,4.55-15.12T300.24,199.16Zm12.18,25.57V333h23.83q7.83,0,12.28-.44a37.55,37.55,0,0,0,9.22-2.17,25.08,25.08,0,0,0,8.26-4.9q15.78-13.71,15.78-47.22,0-23.61-6.94-35.36t-17.1-15q-10.17-3.21-24.57-3.21Z" transform="translate(11.81 5.43)"/><path class="cls-29" d="M156,214.81l60.48,94V213.94q0-9.25,3.86-13.88a12.89,12.89,0,0,1,10.43-4.62,13.29,13.29,0,0,1,10.7,4.62q3.92,4.63,3.92,13.88V339.39q0,21-17,21a21.75,21.75,0,0,1-7.62-1.25,19.13,19.13,0,0,1-6.36-4,38.27,38.27,0,0,1-5.5-6.36q-2.55-3.65-5.09-7.46l-59-92.91v93.46q0,9.14-4.13,13.82a13.5,13.5,0,0,1-10.59,4.67,13.32,13.32,0,0,1-10.69-4.73q-4-4.72-4-13.76V218.83q0-7.83,1.7-12.29a17.39,17.39,0,0,1,6.67-8,17.8,17.8,0,0,1,10.06-3.1,17.09,17.09,0,0,1,7.26,1.41,17.73,17.73,0,0,1,5.29,3.81,39.74,39.74,0,0,1,4.66,6.2Q153.42,210.67,156,214.81Z" transform="translate(11.81 5.43)"/><path class="cls-29" d="M299.24,198.16h41q16,0,27.43,3.05a50,50,0,0,1,20.75,11.42q24.25,21.33,24.25,64.85a131,131,0,0,1-2.43,26.22,79,79,0,0,1-7.52,21.38,66.18,66.18,0,0,1-13,17A53.77,53.77,0,0,1,376,351.35a60.12,60.12,0,0,1-15.94,4.9,118.49,118.49,0,0,1-19.22,1.41h-41q-8.58,0-12.92-2.66a12.34,12.34,0,0,1-5.67-7.51A49.08,49.08,0,0,1,280,334.92V218q0-10.44,4.55-15.12T299.24,198.16Zm12.18,25.57V332h23.83q7.83,0,12.28-.44a37.55,37.55,0,0,0,9.22-2.17,25.08,25.08,0,0,0,8.26-4.9q15.78-13.71,15.78-47.22,0-23.61-6.94-35.36t-17.1-15q-10.17-3.21-24.57-3.21Z" transform="translate(11.81 5.43)"/><path class="cls-30" d="M155,213.81l60.48,94V212.94q0-9.25,3.86-13.88a12.89,12.89,0,0,1,10.43-4.62,13.29,13.29,0,0,1,10.7,4.62q3.92,4.63,3.92,13.88V338.39q0,21-17,21a21.75,21.75,0,0,1-7.62-1.25,19.13,19.13,0,0,1-6.36-4,38.27,38.27,0,0,1-5.5-6.36q-2.55-3.65-5.09-7.46l-59-92.91v93.46q0,9.14-4.13,13.82a13.5,13.5,0,0,1-10.59,4.67,13.32,13.32,0,0,1-10.69-4.73q-4-4.72-4-13.76V217.83q0-7.83,1.7-12.29a17.39,17.39,0,0,1,6.67-8,17.8,17.8,0,0,1,10.06-3.1,17.09,17.09,0,0,1,7.26,1.41,17.73,17.73,0,0,1,5.29,3.81,39.74,39.74,0,0,1,4.66,6.2Q152.42,209.67,155,213.81Z" transform="translate(11.81 5.43)"/><path class="cls-30" d="M298.24,197.16h41q16,0,27.43,3.05a50,50,0,0,1,20.75,11.42q24.25,21.33,24.25,64.85a131,131,0,0,1-2.43,26.22,79,79,0,0,1-7.52,21.38,66.18,66.18,0,0,1-13,17A53.77,53.77,0,0,1,375,350.35a60.12,60.12,0,0,1-15.94,4.9,118.49,118.49,0,0,1-19.22,1.41h-41q-8.58,0-12.92-2.66a12.34,12.34,0,0,1-5.67-7.51A49.08,49.08,0,0,1,279,333.92V217q0-10.44,4.55-15.12T298.24,197.16Zm12.18,25.57V331h23.83q7.83,0,12.28-.44a37.55,37.55,0,0,0,9.22-2.17,25.08,25.08,0,0,0,8.26-4.9q15.78-13.71,15.78-47.22,0-23.61-6.94-35.36t-17.1-15q-10.17-3.21-24.57-3.21Z" transform="translate(11.81 5.43)"/><path class="cls-31" d="M154,212.81l60.48,94V211.94q0-9.25,3.86-13.88a12.89,12.89,0,0,1,10.43-4.62,13.29,13.29,0,0,1,10.7,4.62q3.92,4.63,3.92,13.88V337.39q0,21-17,21a21.75,21.75,0,0,1-7.62-1.25,19.13,19.13,0,0,1-6.36-4,38.27,38.27,0,0,1-5.5-6.36q-2.55-3.65-5.09-7.46l-59-92.91v93.46q0,9.14-4.13,13.82a13.5,13.5,0,0,1-10.59,4.67,13.32,13.32,0,0,1-10.69-4.73q-4-4.72-4-13.76V216.83q0-7.83,1.7-12.29a17.39,17.39,0,0,1,6.67-8,17.8,17.8,0,0,1,10.06-3.1,17.09,17.09,0,0,1,7.26,1.41,17.73,17.73,0,0,1,5.29,3.81,39.74,39.74,0,0,1,4.66,6.2Q151.42,208.67,154,212.81Z" transform="translate(11.81 5.43)"/><path class="cls-31" d="M297.24,196.16h41q16,0,27.43,3.05a50,50,0,0,1,20.75,11.42q24.25,21.33,24.25,64.85a131,131,0,0,1-2.43,26.22,79,79,0,0,1-7.52,21.38,66.18,66.18,0,0,1-13,17A53.77,53.77,0,0,1,374,349.35a60.12,60.12,0,0,1-15.94,4.9,118.49,118.49,0,0,1-19.22,1.41h-41q-8.58,0-12.92-2.66a12.34,12.34,0,0,1-5.67-7.51A49.08,49.08,0,0,1,278,332.92V216q0-10.44,4.55-15.12T297.24,196.16Zm12.18,25.57V330h23.83q7.83,0,12.28-.44a37.55,37.55,0,0,0,9.22-2.17,25.08,25.08,0,0,0,8.26-4.9q15.78-13.71,15.78-47.22,0-23.61-6.94-35.36t-17.1-15q-10.17-3.21-24.57-3.21Z" transform="translate(11.81 5.43)"/><path class="cls-32" d="M153,211.81l60.48,94V210.94q0-9.25,3.86-13.88a12.89,12.89,0,0,1,10.43-4.62,13.29,13.29,0,0,1,10.7,4.62q3.92,4.63,3.92,13.88V336.39q0,21-17,21a21.75,21.75,0,0,1-7.62-1.25,19.13,19.13,0,0,1-6.36-4,38.27,38.27,0,0,1-5.5-6.36q-2.55-3.65-5.09-7.46l-59-92.91v93.46q0,9.14-4.13,13.82a13.5,13.5,0,0,1-10.59,4.67,13.32,13.32,0,0,1-10.69-4.73q-4-4.72-4-13.76V215.83q0-7.83,1.7-12.29a17.39,17.39,0,0,1,6.67-8,17.8,17.8,0,0,1,10.06-3.1,17.09,17.09,0,0,1,7.26,1.41,17.73,17.73,0,0,1,5.29,3.81,39.74,39.74,0,0,1,4.66,6.2Q150.42,207.67,153,211.81Z" transform="translate(11.81 5.43)"/><path class="cls-32" d="M296.24,195.16h41q16,0,27.43,3.05a50,50,0,0,1,20.75,11.42q24.25,21.33,24.25,64.85a131,131,0,0,1-2.43,26.22,79,79,0,0,1-7.52,21.38,66.18,66.18,0,0,1-13,17A53.77,53.77,0,0,1,373,348.35a60.12,60.12,0,0,1-15.94,4.9,118.49,118.49,0,0,1-19.22,1.41h-41q-8.58,0-12.92-2.66a12.34,12.34,0,0,1-5.67-7.51A49.08,49.08,0,0,1,277,331.92V215q0-10.44,4.55-15.12T296.24,195.16Zm12.18,25.57V329h23.83q7.83,0,12.28-.44a37.55,37.55,0,0,0,9.22-2.17,25.08,25.08,0,0,0,8.26-4.9q15.78-13.71,15.78-47.22,0-23.61-6.94-35.36t-17.1-15q-10.17-3.21-24.57-3.21Z" transform="translate(11.81 5.43)"/><path class="cls-33" d="M152,210.81l60.48,94V209.94q0-9.25,3.86-13.88a12.89,12.89,0,0,1,10.43-4.62,13.29,13.29,0,0,1,10.7,4.62q3.92,4.63,3.92,13.88V335.39q0,21-17,21a21.75,21.75,0,0,1-7.62-1.25,19.13,19.13,0,0,1-6.36-4,38.27,38.27,0,0,1-5.5-6.36q-2.55-3.65-5.09-7.46l-59-92.91v93.46q0,9.14-4.13,13.82a13.5,13.5,0,0,1-10.59,4.67,13.32,13.32,0,0,1-10.69-4.73q-4-4.72-4-13.76V214.83q0-7.83,1.7-12.29a17.39,17.39,0,0,1,6.67-8,17.8,17.8,0,0,1,10.06-3.1,17.09,17.09,0,0,1,7.26,1.41,17.73,17.73,0,0,1,5.29,3.81,39.74,39.74,0,0,1,4.66,6.2Q149.42,206.67,152,210.81Z" transform="translate(11.81 5.43)"/><path class="cls-33" d="M295.24,194.16h41q16,0,27.43,3.05a50,50,0,0,1,20.75,11.42q24.25,21.33,24.25,64.85a131,131,0,0,1-2.43,26.22,79,79,0,0,1-7.52,21.38,66.18,66.18,0,0,1-13,17A53.77,53.77,0,0,1,372,347.35a60.12,60.12,0,0,1-15.94,4.9,118.49,118.49,0,0,1-19.22,1.41h-41q-8.58,0-12.92-2.66a12.34,12.34,0,0,1-5.67-7.51A49.08,49.08,0,0,1,276,330.92V214q0-10.44,4.55-15.12T295.24,194.16Zm12.18,25.57V328h23.83q7.83,0,12.28-.44a37.55,37.55,0,0,0,9.22-2.17,25.08,25.08,0,0,0,8.26-4.9q15.78-13.71,15.78-47.22,0-23.61-6.94-35.36t-17.1-15q-10.17-3.21-24.57-3.21Z" transform="translate(11.81 5.43)"/><path class="cls-34" d="M151,209.81l60.48,94V208.94q0-9.25,3.86-13.88a12.89,12.89,0,0,1,10.43-4.62,13.29,13.29,0,0,1,10.7,4.62q3.92,4.63,3.92,13.88V334.39q0,21-17,21a21.75,21.75,0,0,1-7.62-1.25,19.13,19.13,0,0,1-6.36-4,38.27,38.27,0,0,1-5.5-6.36q-2.55-3.65-5.09-7.46l-59-92.91v93.46q0,9.14-4.13,13.82a13.5,13.5,0,0,1-10.59,4.67,13.32,13.32,0,0,1-10.69-4.73q-4-4.72-4-13.76V213.83q0-7.83,1.7-12.29a17.39,17.39,0,0,1,6.67-8,17.8,17.8,0,0,1,10.06-3.1,17.09,17.09,0,0,1,7.26,1.41,17.73,17.73,0,0,1,5.29,3.81,39.74,39.74,0,0,1,4.66,6.2Q148.42,205.67,151,209.81Z" transform="translate(11.81 5.43)"/><path class="cls-34" d="M294.24,193.16h41q16,0,27.43,3.05a50,50,0,0,1,20.75,11.42q24.25,21.33,24.25,64.85a131,131,0,0,1-2.43,26.22,79,79,0,0,1-7.52,21.38,66.18,66.18,0,0,1-13,17A53.77,53.77,0,0,1,371,346.35a60.12,60.12,0,0,1-15.94,4.9,118.49,118.49,0,0,1-19.22,1.41h-41q-8.58,0-12.92-2.66a12.34,12.34,0,0,1-5.67-7.51A49.08,49.08,0,0,1,275,329.92V213q0-10.44,4.55-15.12T294.24,193.16Zm12.18,25.57V327h23.83q7.83,0,12.28-.44a37.55,37.55,0,0,0,9.22-2.17,25.08,25.08,0,0,0,8.26-4.9q15.78-13.71,15.78-47.22,0-23.61-6.94-35.36t-17.1-15q-10.17-3.21-24.57-3.21Z" transform="translate(11.81 5.43)"/><path class="cls-35" d="M150,208.81l60.48,94V207.94q0-9.25,3.86-13.88a12.89,12.89,0,0,1,10.43-4.62,13.29,13.29,0,0,1,10.7,4.62q3.92,4.63,3.92,13.88V333.39q0,21-17,21a21.75,21.75,0,0,1-7.62-1.25,19.13,19.13,0,0,1-6.36-4,38.27,38.27,0,0,1-5.5-6.36q-2.55-3.65-5.09-7.46l-59-92.91v93.46q0,9.14-4.13,13.82a13.5,13.5,0,0,1-10.59,4.67,13.32,13.32,0,0,1-10.69-4.73q-4-4.72-4-13.76V212.83q0-7.83,1.7-12.29a17.39,17.39,0,0,1,6.67-8,17.8,17.8,0,0,1,10.06-3.1,17.09,17.09,0,0,1,7.26,1.41,17.73,17.73,0,0,1,5.29,3.81,39.74,39.74,0,0,1,4.66,6.2Q147.42,204.67,150,208.81Z" transform="translate(11.81 5.43)"/><path class="cls-35" d="M293.24,192.16h41q16,0,27.43,3.05a50,50,0,0,1,20.75,11.42q24.25,21.33,24.25,64.85a131,131,0,0,1-2.43,26.22,79,79,0,0,1-7.52,21.38,66.18,66.18,0,0,1-13,17A53.77,53.77,0,0,1,370,345.35a60.12,60.12,0,0,1-15.94,4.9,118.49,118.49,0,0,1-19.22,1.41h-41q-8.58,0-12.92-2.66a12.34,12.34,0,0,1-5.67-7.51A49.08,49.08,0,0,1,274,328.92V212q0-10.44,4.55-15.12T293.24,192.16Zm12.18,25.57V326h23.83q7.83,0,12.28-.44a37.55,37.55,0,0,0,9.22-2.17,25.08,25.08,0,0,0,8.26-4.9q15.78-13.71,15.78-47.22,0-23.61-6.94-35.36t-17.1-15q-10.17-3.21-24.57-3.21Z" transform="translate(11.81 5.43)"/><path class="cls-36" d="M149,207.81l60.48,94V206.94q0-9.25,3.86-13.88a12.89,12.89,0,0,1,10.43-4.62,13.29,13.29,0,0,1,10.7,4.62q3.92,4.63,3.92,13.88V332.39q0,21-17,21a21.75,21.75,0,0,1-7.62-1.25,19.13,19.13,0,0,1-6.36-4,38.27,38.27,0,0,1-5.5-6.36q-2.55-3.65-5.09-7.46l-59-92.91v93.46q0,9.14-4.13,13.82a13.5,13.5,0,0,1-10.59,4.67,13.32,13.32,0,0,1-10.69-4.73q-4-4.72-4-13.76V211.83q0-7.83,1.7-12.29a17.39,17.39,0,0,1,6.67-8,17.8,17.8,0,0,1,10.06-3.1,17.09,17.09,0,0,1,7.26,1.41,17.73,17.73,0,0,1,5.29,3.81,39.74,39.74,0,0,1,4.66,6.2Q146.42,203.67,149,207.81Z" transform="translate(11.81 5.43)"/><path class="cls-36" d="M292.24,191.16h41q16,0,27.43,3.05a50,50,0,0,1,20.75,11.42q24.25,21.33,24.25,64.85a131,131,0,0,1-2.43,26.22,79,79,0,0,1-7.52,21.38,66.18,66.18,0,0,1-13,17A53.77,53.77,0,0,1,369,344.35a60.12,60.12,0,0,1-15.94,4.9,118.49,118.49,0,0,1-19.22,1.41h-41q-8.58,0-12.92-2.66a12.34,12.34,0,0,1-5.67-7.51A49.08,49.08,0,0,1,273,327.92V211q0-10.44,4.55-15.12T292.24,191.16Zm12.18,25.57V325h23.83q7.83,0,12.28-.44a37.55,37.55,0,0,0,9.22-2.17,25.08,25.08,0,0,0,8.26-4.9q15.78-13.71,15.78-47.22,0-23.61-6.94-35.36t-17.1-15q-10.17-3.21-24.57-3.21Z" transform="translate(11.81 5.43)"/><path class="cls-37" d="M148,206.81l60.48,94V205.94q0-9.25,3.86-13.88a12.89,12.89,0,0,1,10.43-4.62,13.29,13.29,0,0,1,10.7,4.62q3.92,4.63,3.92,13.88V331.39q0,21-17,21a21.75,21.75,0,0,1-7.62-1.25,19.13,19.13,0,0,1-6.36-4,38.27,38.27,0,0,1-5.5-6.36q-2.55-3.65-5.09-7.46l-59-92.91v93.46q0,9.14-4.13,13.82a13.5,13.5,0,0,1-10.59,4.67,13.32,13.32,0,0,1-10.69-4.73q-4-4.72-4-13.76V210.83q0-7.83,1.7-12.29a17.39,17.39,0,0,1,6.67-8,17.8,17.8,0,0,1,10.06-3.1,17.09,17.09,0,0,1,7.26,1.41,17.73,17.73,0,0,1,5.29,3.81,39.74,39.74,0,0,1,4.66,6.2Q145.42,202.67,148,206.81Z" transform="translate(11.81 5.43)"/><path class="cls-37" d="M291.24,190.16h41q16,0,27.43,3.05a50,50,0,0,1,20.75,11.42q24.25,21.33,24.25,64.85a131,131,0,0,1-2.43,26.22,79,79,0,0,1-7.52,21.38,66.18,66.18,0,0,1-13,17A53.77,53.77,0,0,1,368,343.35a60.12,60.12,0,0,1-15.94,4.9,118.49,118.49,0,0,1-19.22,1.41h-41q-8.58,0-12.92-2.66a12.34,12.34,0,0,1-5.67-7.51A49.08,49.08,0,0,1,272,326.92V210q0-10.44,4.55-15.12T291.24,190.16Zm12.18,25.57V324h23.83q7.83,0,12.28-.44a37.55,37.55,0,0,0,9.22-2.17,25.08,25.08,0,0,0,8.26-4.9q15.78-13.71,15.78-47.22,0-23.61-6.94-35.36t-17.1-15q-10.17-3.21-24.57-3.21Z" transform="translate(11.81 5.43)"/><path class="cls-38" d="M147,205.81l60.48,94V204.94q0-9.25,3.86-13.88a12.89,12.89,0,0,1,10.43-4.62,13.29,13.29,0,0,1,10.7,4.62q3.92,4.63,3.92,13.88V330.39q0,21-17,21a21.75,21.75,0,0,1-7.62-1.25,19.13,19.13,0,0,1-6.36-4,38.27,38.27,0,0,1-5.5-6.36q-2.55-3.65-5.09-7.46l-59-92.91v93.46q0,9.14-4.13,13.82a13.5,13.5,0,0,1-10.59,4.67,13.32,13.32,0,0,1-10.69-4.73q-4-4.72-4-13.76V209.83q0-7.83,1.7-12.29a17.39,17.39,0,0,1,6.67-8,17.8,17.8,0,0,1,10.06-3.1,17.09,17.09,0,0,1,7.26,1.41,17.73,17.73,0,0,1,5.29,3.81,39.74,39.74,0,0,1,4.66,6.2Q144.42,201.67,147,205.81Z" transform="translate(11.81 5.43)"/><path class="cls-38" d="M290.24,189.16h41q16,0,27.43,3.05a50,50,0,0,1,20.75,11.42q24.25,21.33,24.25,64.85a131,131,0,0,1-2.43,26.22,79,79,0,0,1-7.52,21.38,66.18,66.18,0,0,1-13,17A53.77,53.77,0,0,1,367,342.35a60.12,60.12,0,0,1-15.94,4.9,118.49,118.49,0,0,1-19.22,1.41h-41q-8.58,0-12.92-2.66a12.34,12.34,0,0,1-5.67-7.51A49.08,49.08,0,0,1,271,325.92V209q0-10.44,4.55-15.12T290.24,189.16Zm12.18,25.57V323h23.83q7.83,0,12.28-.44a37.55,37.55,0,0,0,9.22-2.17,25.08,25.08,0,0,0,8.26-4.9q15.78-13.71,15.78-47.22,0-23.61-6.94-35.36t-17.1-15q-10.17-3.21-24.57-3.21Z" transform="translate(11.81 5.43)"/><path class="cls-39" d="M146,204.81l60.48,94V203.94q0-9.25,3.86-13.88a12.89,12.89,0,0,1,10.43-4.62,13.29,13.29,0,0,1,10.7,4.62q3.92,4.63,3.92,13.88V329.39q0,21-17,21a21.75,21.75,0,0,1-7.62-1.25,19.13,19.13,0,0,1-6.36-4,38.27,38.27,0,0,1-5.5-6.36q-2.55-3.65-5.09-7.46l-59-92.91v93.46q0,9.14-4.13,13.82a13.5,13.5,0,0,1-10.59,4.67,13.32,13.32,0,0,1-10.69-4.73q-4-4.72-4-13.76V208.83q0-7.83,1.7-12.29a17.39,17.39,0,0,1,6.67-8,17.8,17.8,0,0,1,10.06-3.1,17.09,17.09,0,0,1,7.26,1.41,17.73,17.73,0,0,1,5.29,3.81,39.74,39.74,0,0,1,4.66,6.2Q143.42,200.67,146,204.81Z" transform="translate(11.81 5.43)"/><path class="cls-39" d="M289.24,188.16h41q16,0,27.43,3.05a50,50,0,0,1,20.75,11.42q24.25,21.33,24.25,64.85a131,131,0,0,1-2.43,26.22,79,79,0,0,1-7.52,21.38,66.18,66.18,0,0,1-13,17A53.77,53.77,0,0,1,366,341.35a60.12,60.12,0,0,1-15.94,4.9,118.49,118.49,0,0,1-19.22,1.41h-41q-8.58,0-12.92-2.66a12.34,12.34,0,0,1-5.67-7.51A49.08,49.08,0,0,1,270,324.92V208q0-10.44,4.55-15.12T289.24,188.16Zm12.18,25.57V322h23.83q7.83,0,12.28-.44a37.55,37.55,0,0,0,9.22-2.17,25.08,25.08,0,0,0,8.26-4.9q15.78-13.71,15.78-47.22,0-23.61-6.94-35.36t-17.1-15q-10.17-3.21-24.57-3.21Z" transform="translate(11.81 5.43)"/><path class="cls-40" d="M145,203.81l60.48,94V202.94q0-9.25,3.86-13.88a12.89,12.89,0,0,1,10.43-4.62,13.29,13.29,0,0,1,10.7,4.62q3.92,4.63,3.92,13.88V328.39q0,21-17,21a21.75,21.75,0,0,1-7.62-1.25,19.13,19.13,0,0,1-6.36-4,38.27,38.27,0,0,1-5.5-6.36q-2.55-3.65-5.09-7.46l-59-92.91v93.46q0,9.14-4.13,13.82a13.5,13.5,0,0,1-10.59,4.67,13.32,13.32,0,0,1-10.69-4.73q-4-4.72-4-13.76V207.83q0-7.83,1.7-12.29a17.39,17.39,0,0,1,6.67-8,17.8,17.8,0,0,1,10.06-3.1,17.09,17.09,0,0,1,7.26,1.41,17.73,17.73,0,0,1,5.29,3.81,39.74,39.74,0,0,1,4.66,6.2Q142.42,199.67,145,203.81Z" transform="translate(11.81 5.43)"/><path class="cls-40" d="M288.24,187.16h41q16,0,27.43,3.05a50,50,0,0,1,20.75,11.42q24.25,21.33,24.25,64.85a131,131,0,0,1-2.43,26.22,79,79,0,0,1-7.52,21.38,66.18,66.18,0,0,1-13,17A53.77,53.77,0,0,1,365,340.35a60.12,60.12,0,0,1-15.94,4.9,118.49,118.49,0,0,1-19.22,1.41h-41q-8.58,0-12.92-2.66a12.34,12.34,0,0,1-5.67-7.51A49.08,49.08,0,0,1,269,323.92V207q0-10.44,4.55-15.12T288.24,187.16Zm12.18,25.57V321h23.83q7.83,0,12.28-.44a37.55,37.55,0,0,0,9.22-2.17,25.08,25.08,0,0,0,8.26-4.9q15.78-13.71,15.78-47.22,0-23.61-6.94-35.36t-17.1-15q-10.17-3.21-24.57-3.21Z" transform="translate(11.81 5.43)"/><path class="cls-41" d="M144,202.81l60.48,94V201.94q0-9.25,3.86-13.88a12.89,12.89,0,0,1,10.43-4.62,13.29,13.29,0,0,1,10.7,4.62q3.92,4.63,3.92,13.88V327.39q0,21-17,21a21.75,21.75,0,0,1-7.62-1.25,19.13,19.13,0,0,1-6.36-4,38.27,38.27,0,0,1-5.5-6.36q-2.55-3.65-5.09-7.46l-59-92.91v93.46q0,9.14-4.13,13.82a13.5,13.5,0,0,1-10.59,4.67,13.32,13.32,0,0,1-10.69-4.73q-4-4.72-4-13.76V206.83q0-7.83,1.7-12.29a17.39,17.39,0,0,1,6.67-8,17.8,17.8,0,0,1,10.06-3.1,17.09,17.09,0,0,1,7.26,1.41,17.73,17.73,0,0,1,5.29,3.81,39.74,39.74,0,0,1,4.66,6.2Q141.42,198.67,144,202.81Z" transform="translate(11.81 5.43)"/><path class="cls-41" d="M287.24,186.16h41q16,0,27.43,3.05a50,50,0,0,1,20.75,11.42q24.25,21.33,24.25,64.85a131,131,0,0,1-2.43,26.22,79,79,0,0,1-7.52,21.38,66.18,66.18,0,0,1-13,17A53.77,53.77,0,0,1,364,339.35a60.12,60.12,0,0,1-15.94,4.9,118.49,118.49,0,0,1-19.22,1.41h-41q-8.58,0-12.92-2.66a12.34,12.34,0,0,1-5.67-7.51A49.08,49.08,0,0,1,268,322.92V206q0-10.44,4.55-15.12T287.24,186.16Zm12.18,25.57V320h23.83q7.83,0,12.28-.44a37.55,37.55,0,0,0,9.22-2.17,25.08,25.08,0,0,0,8.26-4.9q15.78-13.71,15.78-47.22,0-23.61-6.94-35.36t-17.1-15q-10.17-3.21-24.57-3.21Z" transform="translate(11.81 5.43)"/><path class="cls-42" d="M143,201.81l60.48,94V200.94q0-9.25,3.86-13.88a12.89,12.89,0,0,1,10.43-4.62,13.29,13.29,0,0,1,10.7,4.62q3.92,4.63,3.92,13.88V326.39q0,21-17,21a21.75,21.75,0,0,1-7.62-1.25,19.13,19.13,0,0,1-6.36-4,38.27,38.27,0,0,1-5.5-6.36q-2.55-3.65-5.09-7.46l-59-92.91v93.46q0,9.14-4.13,13.82a13.5,13.5,0,0,1-10.59,4.67,13.32,13.32,0,0,1-10.69-4.73q-4-4.72-4-13.76V205.83q0-7.83,1.7-12.29a17.39,17.39,0,0,1,6.67-8,17.8,17.8,0,0,1,10.06-3.1,17.09,17.09,0,0,1,7.26,1.41,17.73,17.73,0,0,1,5.29,3.81,39.74,39.74,0,0,1,4.66,6.2Q140.42,197.67,143,201.81Z" transform="translate(11.81 5.43)"/><path class="cls-42" d="M286.24,185.16h41q16,0,27.43,3.05a50,50,0,0,1,20.75,11.42q24.25,21.33,24.25,64.85a131,131,0,0,1-2.43,26.22,79,79,0,0,1-7.52,21.38,66.18,66.18,0,0,1-13,17A53.77,53.77,0,0,1,363,338.35a60.12,60.12,0,0,1-15.94,4.9,118.49,118.49,0,0,1-19.22,1.41h-41q-8.58,0-12.92-2.66a12.34,12.34,0,0,1-5.67-7.51A49.08,49.08,0,0,1,267,321.92V205q0-10.44,4.55-15.12T286.24,185.16Zm12.18,25.57V319h23.83q7.83,0,12.28-.44a37.55,37.55,0,0,0,9.22-2.17,25.08,25.08,0,0,0,8.26-4.9q15.78-13.71,15.78-47.22,0-23.61-6.94-35.36t-17.1-15q-10.17-3.21-24.57-3.21Z" transform="translate(11.81 5.43)"/><path class="cls-43" d="M142,200.81l60.48,94V199.94q0-9.25,3.86-13.88a12.89,12.89,0,0,1,10.43-4.62,13.29,13.29,0,0,1,10.7,4.62q3.92,4.63,3.92,13.88V325.39q0,21-17,21a21.75,21.75,0,0,1-7.62-1.25,19.13,19.13,0,0,1-6.36-4,38.27,38.27,0,0,1-5.5-6.36q-2.55-3.65-5.09-7.46l-59-92.91v93.46q0,9.14-4.13,13.82a13.5,13.5,0,0,1-10.59,4.67,13.32,13.32,0,0,1-10.69-4.73q-4-4.72-4-13.76V204.83q0-7.83,1.7-12.29a17.39,17.39,0,0,1,6.67-8,17.8,17.8,0,0,1,10.06-3.1,17.09,17.09,0,0,1,7.26,1.41,17.73,17.73,0,0,1,5.29,3.81,39.74,39.74,0,0,1,4.66,6.2Q139.42,196.67,142,200.81Z" transform="translate(11.81 5.43)"/><path class="cls-43" d="M285.24,184.16h41q16,0,27.43,3.05a50,50,0,0,1,20.75,11.42q24.25,21.33,24.25,64.85a131,131,0,0,1-2.43,26.22,79,79,0,0,1-7.52,21.38,66.18,66.18,0,0,1-13,17A53.77,53.77,0,0,1,362,337.35a60.12,60.12,0,0,1-15.94,4.9,118.49,118.49,0,0,1-19.22,1.41h-41q-8.58,0-12.92-2.66a12.34,12.34,0,0,1-5.67-7.51A49.08,49.08,0,0,1,266,320.92V204q0-10.44,4.55-15.12T285.24,184.16Zm12.18,25.57V318h23.83q7.83,0,12.28-.44a37.55,37.55,0,0,0,9.22-2.17,25.08,25.08,0,0,0,8.26-4.9q15.78-13.71,15.78-47.22,0-23.61-6.94-35.36t-17.1-15q-10.17-3.21-24.57-3.21Z" transform="translate(11.81 5.43)"/><path class="cls-44" d="M141,199.81l60.48,94V198.94q0-9.25,3.86-13.88a12.89,12.89,0,0,1,10.43-4.62,13.29,13.29,0,0,1,10.7,4.62q3.92,4.63,3.92,13.88V324.39q0,21-17,21a21.75,21.75,0,0,1-7.62-1.25,19.13,19.13,0,0,1-6.36-4,38.27,38.27,0,0,1-5.5-6.36q-2.55-3.65-5.09-7.46l-59-92.91v93.46q0,9.14-4.13,13.82a13.5,13.5,0,0,1-10.59,4.67,13.32,13.32,0,0,1-10.69-4.73q-4-4.72-4-13.76V203.83q0-7.83,1.7-12.29a17.39,17.39,0,0,1,6.67-8,17.8,17.8,0,0,1,10.06-3.1,17.09,17.09,0,0,1,7.26,1.41,17.73,17.73,0,0,1,5.29,3.81,39.74,39.74,0,0,1,4.66,6.2Q138.42,195.67,141,199.81Z" transform="translate(11.81 5.43)"/><path class="cls-44" d="M284.24,183.16h41q16,0,27.43,3.05a50,50,0,0,1,20.75,11.42q24.25,21.33,24.25,64.85a131,131,0,0,1-2.43,26.22,79,79,0,0,1-7.52,21.38,66.18,66.18,0,0,1-13,17A53.77,53.77,0,0,1,361,336.35a60.12,60.12,0,0,1-15.94,4.9,118.49,118.49,0,0,1-19.22,1.41h-41q-8.58,0-12.92-2.66a12.34,12.34,0,0,1-5.67-7.51A49.08,49.08,0,0,1,265,319.92V203q0-10.44,4.55-15.12T284.24,183.16Zm12.18,25.57V317h23.83q7.83,0,12.28-.44a37.55,37.55,0,0,0,9.22-2.17,25.08,25.08,0,0,0,8.26-4.9q15.78-13.71,15.78-47.22,0-23.61-6.94-35.36t-17.1-15q-10.17-3.21-24.57-3.21Z" transform="translate(11.81 5.43)"/><path class="cls-45" d="M140,198.81l60.48,94V197.94q0-9.25,3.86-13.88a12.89,12.89,0,0,1,10.43-4.62,13.29,13.29,0,0,1,10.7,4.62q3.92,4.63,3.92,13.88V323.39q0,21-17,21a21.75,21.75,0,0,1-7.62-1.25,19.13,19.13,0,0,1-6.36-4,38.27,38.27,0,0,1-5.5-6.36q-2.55-3.65-5.09-7.46l-59-92.91v93.46q0,9.14-4.13,13.82a13.5,13.5,0,0,1-10.59,4.67,13.32,13.32,0,0,1-10.69-4.73q-4-4.72-4-13.76V202.83q0-7.83,1.7-12.29a17.39,17.39,0,0,1,6.67-8,17.8,17.8,0,0,1,10.06-3.1,17.09,17.09,0,0,1,7.26,1.41,17.73,17.73,0,0,1,5.29,3.81,39.74,39.74,0,0,1,4.66,6.2Q137.42,194.67,140,198.81Z" transform="translate(11.81 5.43)"/><path class="cls-45" d="M283.24,182.16h41q16,0,27.43,3.05a50,50,0,0,1,20.75,11.42q24.25,21.33,24.25,64.85a131,131,0,0,1-2.43,26.22,79,79,0,0,1-7.52,21.38,66.18,66.18,0,0,1-13,17A53.77,53.77,0,0,1,360,335.35a60.12,60.12,0,0,1-15.94,4.9,118.49,118.49,0,0,1-19.22,1.41h-41q-8.58,0-12.92-2.66a12.34,12.34,0,0,1-5.67-7.51A49.08,49.08,0,0,1,264,318.92V202q0-10.44,4.55-15.12T283.24,182.16Zm12.18,25.57V316h23.83q7.83,0,12.28-.44a37.55,37.55,0,0,0,9.22-2.17,25.08,25.08,0,0,0,8.26-4.9q15.78-13.71,15.78-47.22,0-23.61-6.94-35.36t-17.1-15q-10.17-3.21-24.57-3.21Z" transform="translate(11.81 5.43)"/><path class="cls-46" d="M139,197.81l60.48,94V196.94q0-9.25,3.86-13.88a12.89,12.89,0,0,1,10.43-4.62,13.29,13.29,0,0,1,10.7,4.62q3.92,4.63,3.92,13.88V322.39q0,21-17,21a21.75,21.75,0,0,1-7.62-1.25,19.13,19.13,0,0,1-6.36-4,38.27,38.27,0,0,1-5.5-6.36q-2.55-3.65-5.09-7.46l-59-92.91v93.46q0,9.14-4.13,13.82a13.5,13.5,0,0,1-10.59,4.67,13.32,13.32,0,0,1-10.69-4.73q-4-4.72-4-13.76V201.83q0-7.83,1.7-12.29a17.39,17.39,0,0,1,6.67-8,17.8,17.8,0,0,1,10.06-3.1,17.09,17.09,0,0,1,7.26,1.41,17.73,17.73,0,0,1,5.29,3.81,39.74,39.74,0,0,1,4.66,6.2Q136.42,193.67,139,197.81Z" transform="translate(11.81 5.43)"/><path class="cls-46" d="M282.24,181.16h41q16,0,27.43,3.05a50,50,0,0,1,20.75,11.42q24.25,21.33,24.25,64.85a131,131,0,0,1-2.43,26.22,79,79,0,0,1-7.52,21.38,66.18,66.18,0,0,1-13,17A53.77,53.77,0,0,1,359,334.35a60.12,60.12,0,0,1-15.94,4.9,118.49,118.49,0,0,1-19.22,1.41h-41q-8.58,0-12.92-2.66a12.34,12.34,0,0,1-5.67-7.51A49.08,49.08,0,0,1,263,317.92V201q0-10.44,4.55-15.12T282.24,181.16Zm12.18,25.57V315h23.83q7.83,0,12.28-.44a37.55,37.55,0,0,0,9.22-2.17,25.08,25.08,0,0,0,8.26-4.9q15.78-13.71,15.78-47.22,0-23.61-6.94-35.36t-17.1-15q-10.17-3.21-24.57-3.21Z" transform="translate(11.81 5.43)"/><path class="cls-47" d="M138,196.81l60.48,94V195.94q0-9.25,3.86-13.88a12.89,12.89,0,0,1,10.43-4.62,13.29,13.29,0,0,1,10.7,4.62q3.92,4.63,3.92,13.88V321.39q0,21-17,21a21.75,21.75,0,0,1-7.62-1.25,19.13,19.13,0,0,1-6.36-4,38.27,38.27,0,0,1-5.5-6.36q-2.55-3.65-5.09-7.46l-59-92.91v93.46q0,9.14-4.13,13.82a13.5,13.5,0,0,1-10.59,4.67,13.32,13.32,0,0,1-10.69-4.73q-4-4.72-4-13.76V200.83q0-7.83,1.7-12.29a17.39,17.39,0,0,1,6.67-8,17.8,17.8,0,0,1,10.06-3.1,17.09,17.09,0,0,1,7.26,1.41,17.73,17.73,0,0,1,5.29,3.81,39.74,39.74,0,0,1,4.66,6.2Q135.42,192.67,138,196.81Z" transform="translate(11.81 5.43)"/><path class="cls-47" d="M281.24,180.16h41q16,0,27.43,3.05a50,50,0,0,1,20.75,11.42q24.25,21.33,24.25,64.85a131,131,0,0,1-2.43,26.22,79,79,0,0,1-7.52,21.38,66.18,66.18,0,0,1-13,17A53.77,53.77,0,0,1,358,333.35a60.12,60.12,0,0,1-15.94,4.9,118.49,118.49,0,0,1-19.22,1.41h-41q-8.58,0-12.92-2.66a12.34,12.34,0,0,1-5.67-7.51A49.08,49.08,0,0,1,262,316.92V200q0-10.44,4.55-15.12T281.24,180.16Zm12.18,25.57V314h23.83q7.83,0,12.28-.44a37.55,37.55,0,0,0,9.22-2.17,25.08,25.08,0,0,0,8.26-4.9q15.78-13.71,15.78-47.22,0-23.61-6.94-35.36t-17.1-15q-10.17-3.21-24.57-3.21Z" transform="translate(11.81 5.43)"/><path class="cls-48" d="M137,195.81l60.48,94V194.94q0-9.25,3.86-13.88a12.89,12.89,0,0,1,10.43-4.62,13.29,13.29,0,0,1,10.7,4.62q3.92,4.63,3.92,13.88V320.39q0,21-17,21a21.75,21.75,0,0,1-7.62-1.25,19.13,19.13,0,0,1-6.36-4,38.27,38.27,0,0,1-5.5-6.36q-2.55-3.65-5.09-7.46l-59-92.91v93.46q0,9.14-4.13,13.82a13.5,13.5,0,0,1-10.59,4.67,13.32,13.32,0,0,1-10.69-4.73q-4-4.72-4-13.76V199.83q0-7.83,1.7-12.29a17.39,17.39,0,0,1,6.67-8,17.8,17.8,0,0,1,10.06-3.1,17.09,17.09,0,0,1,7.26,1.41,17.73,17.73,0,0,1,5.29,3.81,39.74,39.74,0,0,1,4.66,6.2Q134.42,191.67,137,195.81Z" transform="translate(11.81 5.43)"/><path class="cls-48" d="M280.24,179.16h41q16,0,27.43,3.05a50,50,0,0,1,20.75,11.42q24.25,21.33,24.25,64.85a131,131,0,0,1-2.43,26.22,79,79,0,0,1-7.52,21.38,66.18,66.18,0,0,1-13,17A53.77,53.77,0,0,1,357,332.35a60.12,60.12,0,0,1-15.94,4.9,118.49,118.49,0,0,1-19.22,1.41h-41q-8.58,0-12.92-2.66a12.34,12.34,0,0,1-5.67-7.51A49.08,49.08,0,0,1,261,315.92V199q0-10.44,4.55-15.12T280.24,179.16Zm12.18,25.57V313h23.83q7.83,0,12.28-.44a37.55,37.55,0,0,0,9.22-2.17,25.08,25.08,0,0,0,8.26-4.9q15.78-13.71,15.78-47.22,0-23.61-6.94-35.36t-17.1-15q-10.17-3.21-24.57-3.21Z" transform="translate(11.81 5.43)"/><path class="cls-49" d="M136,194.81l60.48,94V193.94q0-9.25,3.86-13.88a12.89,12.89,0,0,1,10.43-4.62,13.29,13.29,0,0,1,10.7,4.62q3.92,4.63,3.92,13.88V319.39q0,21-17,21a21.75,21.75,0,0,1-7.62-1.25,19.13,19.13,0,0,1-6.36-4,38.27,38.27,0,0,1-5.5-6.36q-2.55-3.65-5.09-7.46l-59-92.91v93.46q0,9.14-4.13,13.82a13.5,13.5,0,0,1-10.59,4.67,13.32,13.32,0,0,1-10.69-4.73q-4-4.72-4-13.76V198.83q0-7.83,1.7-12.29a17.39,17.39,0,0,1,6.67-8,17.8,17.8,0,0,1,10.06-3.1,17.09,17.09,0,0,1,7.26,1.41,17.73,17.73,0,0,1,5.29,3.81,39.74,39.74,0,0,1,4.66,6.2Q133.42,190.67,136,194.81Z" transform="translate(11.81 5.43)"/><path class="cls-49" d="M279.24,178.16h41q16,0,27.43,3.05a50,50,0,0,1,20.75,11.42q24.25,21.33,24.25,64.85a131,131,0,0,1-2.43,26.22,79,79,0,0,1-7.52,21.38,66.18,66.18,0,0,1-13,17A53.77,53.77,0,0,1,356,331.35a60.12,60.12,0,0,1-15.94,4.9,118.49,118.49,0,0,1-19.22,1.41h-41q-8.58,0-12.92-2.66a12.34,12.34,0,0,1-5.67-7.51A49.08,49.08,0,0,1,260,314.92V198q0-10.44,4.55-15.12T279.24,178.16Zm12.18,25.57V312h23.83q7.83,0,12.28-.44a37.55,37.55,0,0,0,9.22-2.17,25.08,25.08,0,0,0,8.26-4.9q15.78-13.71,15.78-47.22,0-23.61-6.94-35.36t-17.1-15q-10.17-3.21-24.57-3.21Z" transform="translate(11.81 5.43)"/><path class="cls-50" d="M135,193.81l60.48,94V192.94q0-9.25,3.86-13.88a12.89,12.89,0,0,1,10.43-4.62,13.29,13.29,0,0,1,10.7,4.62q3.92,4.63,3.92,13.88V318.39q0,21-17,21a21.75,21.75,0,0,1-7.62-1.25,19.13,19.13,0,0,1-6.36-4,38.27,38.27,0,0,1-5.5-6.36q-2.55-3.65-5.09-7.46l-59-92.91v93.46q0,9.14-4.13,13.82a13.5,13.5,0,0,1-10.59,4.67,13.32,13.32,0,0,1-10.69-4.73q-4-4.72-4-13.76V197.83q0-7.83,1.7-12.29a17.39,17.39,0,0,1,6.67-8,17.8,17.8,0,0,1,10.06-3.1,17.09,17.09,0,0,1,7.26,1.41,17.73,17.73,0,0,1,5.29,3.81,39.74,39.74,0,0,1,4.66,6.2Q132.42,189.67,135,193.81Z" transform="translate(11.81 5.43)"/><path class="cls-50" d="M278.24,177.16h41q16,0,27.43,3.05a50,50,0,0,1,20.75,11.42q24.25,21.33,24.25,64.85a131,131,0,0,1-2.43,26.22,79,79,0,0,1-7.52,21.38,66.18,66.18,0,0,1-13,17A53.77,53.77,0,0,1,355,330.35a60.12,60.12,0,0,1-15.94,4.9,118.49,118.49,0,0,1-19.22,1.41h-41q-8.58,0-12.92-2.66a12.34,12.34,0,0,1-5.67-7.51A49.08,49.08,0,0,1,259,313.92V197q0-10.44,4.55-15.12T278.24,177.16Zm12.18,25.57V311h23.83q7.83,0,12.28-.44a37.55,37.55,0,0,0,9.22-2.17,25.08,25.08,0,0,0,8.26-4.9q15.78-13.71,15.78-47.22,0-23.61-6.94-35.36t-17.1-15q-10.17-3.21-24.57-3.21Z" transform="translate(11.81 5.43)"/><path class="cls-51" d="M134,192.81l60.48,94V191.94q0-9.25,3.86-13.88a12.89,12.89,0,0,1,10.43-4.62,13.29,13.29,0,0,1,10.7,4.62q3.92,4.63,3.92,13.88V317.39q0,21-17,21a21.75,21.75,0,0,1-7.62-1.25,19.13,19.13,0,0,1-6.36-4,38.27,38.27,0,0,1-5.5-6.36q-2.55-3.65-5.09-7.46l-59-92.91v93.46q0,9.14-4.13,13.82a13.5,13.5,0,0,1-10.59,4.67,13.32,13.32,0,0,1-10.69-4.73q-4-4.72-4-13.76V196.83q0-7.83,1.7-12.29a17.39,17.39,0,0,1,6.67-8,17.8,17.8,0,0,1,10.06-3.1,17.09,17.09,0,0,1,7.26,1.41,17.73,17.73,0,0,1,5.29,3.81,39.74,39.74,0,0,1,4.66,6.2Q131.42,188.67,134,192.81Z" transform="translate(11.81 5.43)"/><path class="cls-51" d="M277.24,176.16h41q16,0,27.43,3.05a50,50,0,0,1,20.75,11.42q24.25,21.33,24.25,64.85a131,131,0,0,1-2.43,26.22,79,79,0,0,1-7.52,21.38,66.18,66.18,0,0,1-13,17A53.77,53.77,0,0,1,354,329.35a60.12,60.12,0,0,1-15.94,4.9,118.49,118.49,0,0,1-19.22,1.41h-41q-8.58,0-12.92-2.66a12.34,12.34,0,0,1-5.67-7.51A49.08,49.08,0,0,1,258,312.92V196q0-10.44,4.55-15.12T277.24,176.16Zm12.18,25.57V310h23.83q7.83,0,12.28-.44a37.55,37.55,0,0,0,9.22-2.17,25.08,25.08,0,0,0,8.26-4.9q15.78-13.71,15.78-47.22,0-23.61-6.94-35.36t-17.1-15q-10.17-3.21-24.57-3.21Z" transform="translate(11.81 5.43)"/><path class="cls-52" d="M133,191.81l60.48,94V190.94q0-9.25,3.86-13.88a12.89,12.89,0,0,1,10.43-4.62,13.29,13.29,0,0,1,10.7,4.62q3.92,4.63,3.92,13.88V316.39q0,21-17,21a21.75,21.75,0,0,1-7.62-1.25,19.13,19.13,0,0,1-6.36-4,38.27,38.27,0,0,1-5.5-6.36q-2.55-3.65-5.09-7.46l-59-92.91v93.46q0,9.14-4.13,13.82a13.5,13.5,0,0,1-10.59,4.67,13.32,13.32,0,0,1-10.69-4.73q-4-4.72-4-13.76V195.83q0-7.83,1.7-12.29a17.39,17.39,0,0,1,6.67-8,17.8,17.8,0,0,1,10.06-3.1,17.09,17.09,0,0,1,7.26,1.41,17.73,17.73,0,0,1,5.29,3.81,39.74,39.74,0,0,1,4.66,6.2Q130.42,187.67,133,191.81Z" transform="translate(11.81 5.43)"/><path class="cls-52" d="M276.24,175.16h41q16,0,27.43,3.05a50,50,0,0,1,20.75,11.42q24.25,21.33,24.25,64.85a131,131,0,0,1-2.43,26.22,79,79,0,0,1-7.52,21.38,66.18,66.18,0,0,1-13,17A53.77,53.77,0,0,1,353,328.35a60.12,60.12,0,0,1-15.94,4.9,118.49,118.49,0,0,1-19.22,1.41h-41q-8.58,0-12.92-2.66a12.34,12.34,0,0,1-5.67-7.51A49.08,49.08,0,0,1,257,311.92V195q0-10.44,4.55-15.12T276.24,175.16Zm12.18,25.57V309h23.83q7.83,0,12.28-.44a37.55,37.55,0,0,0,9.22-2.17,25.08,25.08,0,0,0,8.26-4.9q15.78-13.71,15.78-47.22,0-23.61-6.94-35.36t-17.1-15q-10.17-3.21-24.57-3.21Z" transform="translate(11.81 5.43)"/><path class="cls-53" d="M132,190.81l60.48,94V189.94q0-9.25,3.86-13.88a12.89,12.89,0,0,1,10.43-4.62,13.29,13.29,0,0,1,10.7,4.62q3.92,4.63,3.92,13.88V315.39q0,21-17,21a21.75,21.75,0,0,1-7.62-1.25,19.13,19.13,0,0,1-6.36-4,38.27,38.27,0,0,1-5.5-6.36q-2.55-3.65-5.09-7.46l-59-92.91v93.46q0,9.14-4.13,13.82a13.5,13.5,0,0,1-10.59,4.67,13.32,13.32,0,0,1-10.69-4.73q-4-4.72-4-13.76V194.83q0-7.83,1.7-12.29a17.39,17.39,0,0,1,6.67-8,17.8,17.8,0,0,1,10.06-3.1,17.09,17.09,0,0,1,7.26,1.41,17.73,17.73,0,0,1,5.29,3.81,39.74,39.74,0,0,1,4.66,6.2Q129.42,186.67,132,190.81Z" transform="translate(11.81 5.43)"/><path class="cls-53" d="M275.24,174.16h41q16,0,27.43,3.05a50,50,0,0,1,20.75,11.42q24.25,21.33,24.25,64.85a131,131,0,0,1-2.43,26.22,79,79,0,0,1-7.52,21.38,66.18,66.18,0,0,1-13,17A53.77,53.77,0,0,1,352,327.35a60.12,60.12,0,0,1-15.94,4.9,118.49,118.49,0,0,1-19.22,1.41h-41q-8.58,0-12.92-2.66a12.34,12.34,0,0,1-5.67-7.51A49.08,49.08,0,0,1,256,310.92V194q0-10.44,4.55-15.12T275.24,174.16Zm12.18,25.57V308h23.83q7.83,0,12.28-.44a37.55,37.55,0,0,0,9.22-2.17,25.08,25.08,0,0,0,8.26-4.9q15.78-13.71,15.78-47.22,0-23.61-6.94-35.36t-17.1-15q-10.17-3.21-24.57-3.21Z" transform="translate(11.81 5.43)"/></g><text class="cls-54" transform="translate(83.84 337.09) scale(0.97 1)">ND</text><path class="cls-55" d="M132,190.81l60.48,94V189.94q0-9.25,3.86-13.88a12.89,12.89,0,0,1,10.43-4.62,13.29,13.29,0,0,1,10.7,4.62q3.92,4.63,3.92,13.88V315.39q0,21-17,21a21.75,21.75,0,0,1-7.62-1.25,19.13,19.13,0,0,1-6.36-4,38.27,38.27,0,0,1-5.5-6.36q-2.55-3.65-5.09-7.46l-59-92.91v93.46q0,9.14-4.13,13.82a13.5,13.5,0,0,1-10.59,4.67,13.32,13.32,0,0,1-10.69-4.73q-4-4.72-4-13.76V194.83q0-7.83,1.7-12.29a17.39,17.39,0,0,1,6.67-8,17.8,17.8,0,0,1,10.06-3.1,17.09,17.09,0,0,1,7.26,1.41,17.73,17.73,0,0,1,5.29,3.81,39.74,39.74,0,0,1,4.66,6.2Q129.42,186.67,132,190.81Z" transform="translate(11.81 5.43)"/><path class="cls-55" d="M275.24,174.16h41q16,0,27.43,3.05a50,50,0,0,1,20.75,11.42q24.25,21.33,24.25,64.85a131,131,0,0,1-2.43,26.22,79,79,0,0,1-7.52,21.38,66.18,66.18,0,0,1-13,17A53.77,53.77,0,0,1,352,327.35a60.12,60.12,0,0,1-15.94,4.9,118.49,118.49,0,0,1-19.22,1.41h-41q-8.58,0-12.92-2.66a12.34,12.34,0,0,1-5.67-7.51A49.08,49.08,0,0,1,256,310.92V194q0-10.44,4.55-15.12T275.24,174.16Zm12.18,25.57V308h23.83q7.83,0,12.28-.44a37.55,37.55,0,0,0,9.22-2.17,25.08,25.08,0,0,0,8.26-4.9q15.78-13.71,15.78-47.22,0-23.61-6.94-35.36t-17.1-15q-10.17-3.21-24.57-3.21Z" transform="translate(11.81 5.43)"/><path class="cls-56" d="M358.75,67.77A236.59,236.59,0,0,1,470.64,249c-3.15-35.71-41.15-71.27-72-84.08-38.11-15.82-83.4-9-123.1-4C229.1,166.67,184,166,142.07,142.77c-23.17-12.84-49.3-52.32-19-79.35a55.12,55.12,0,0,1,14-8.83C206.39,23.1,289.05,24.89,358.75,67.77Z" transform="translate(11.81 5.43)"/><path class="cls-57" d="M112.6,469.62A236.55,236.55,0,0,1,.72,288.44c3.15,35.71,41.15,71.27,72,84.08,38.12,15.82,83.41,9,123.11,4,46.42-5.83,91.56-5.13,133.44,18.07,23.18,12.84,49.31,52.32,19,79.36a55.09,55.09,0,0,1-14,8.82C265,514.29,182.31,512.51,112.6,469.62Z" transform="translate(11.81 5.43)"/><path class="cls-58" d="M335.61,55.21a236.56,236.56,0,0,0-212.85,6.43c31.54-17,82.15-4.92,109.84,13.78,34.2,23.1,53.47,64.65,71.18,100.53,20.7,42,46.15,79.24,88.59,101.41,23.48,12.27,70.83,12.33,76.69-27.86a55.14,55.14,0,0,0-.36-16.57C456.82,157.76,409.79,89.76,335.61,55.21Z" transform="translate(11.81 5.43)"/><path class="cls-59" d="M135.75,482.18a236.56,236.56,0,0,0,212.85-6.43c-31.54,17.05-82.15,4.92-109.84-13.78-34.21-23.1-53.47-64.64-71.18-100.52C146.88,319.49,121.43,282.2,79,260,55.51,247.76,8.16,247.7,2.3,287.89a55.14,55.14,0,0,0,.36,16.57C14.54,379.63,61.56,447.63,135.75,482.18Z" transform="translate(11.81 5.43)"/><circle class="cls-60" cx="236.42" cy="268.75" r="235.63" transform="translate(-108.98 251.32) rotate(-45)"/><circle class="cls-61" cx="236.02" cy="268.7" r="235.63" transform="translate(-109.06 251.02) rotate(-45)"/></g></g></svg>