<svg xmlns="http://www.w3.org/2000/svg" xmlns:xlink="http://www.w3.org/1999/xlink" width="631" zoomAndPan="magnify" viewBox="0 0 473.25 544.500001" height="726" preserveAspectRatio="xMidYMid meet" version="1.0"><defs><g/><clipPath id="93aecbc842"><path d="M 0 0.179688 L 472.5 0.179688 L 472.5 543.820312 L 0 543.820312 Z M 0 0.179688 " clip-rule="nonzero"/></clipPath></defs><g clip-path="url(#93aecbc842)"><path fill="#ffffff" d="M 0 0.179688 L 472.5 0.179688 L 472.5 543.820312 L 0 543.820312 Z M 0 0.179688 " fill-opacity="1" fill-rule="nonzero"/><path fill="#e1e1e1" d="M 0 0.179688 L 472.5 0.179688 L 472.5 543.820312 L 0 543.820312 Z M 0 0.179688 " fill-opacity="1" fill-rule="nonzero"/></g><g fill="#000000" fill-opacity="1"><g transform="translate(209.258953, 372.243617)"><g><path d="M 23.8125 -53.234375 C 16.875 -44.160156 13.40625 -34.351562 13.40625 -23.8125 C 13.40625 -11.269531 18.675781 -1.53125 29.21875 5.40625 C 35.351562 9.539062 42.320312 11.609375 50.125 11.609375 C 57.9375 11.609375 64.710938 10.070312 70.453125 7 C 81.253906 1.394531 87.320312 -8.007812 88.65625 -21.21875 C 88.789062 -22.144531 88.859375 -23.078125 88.859375 -24.015625 C 88.859375 -28.953125 87.488281 -34.289062 84.75 -40.03125 C 82.019531 -45.769531 77.585938 -51.039062 71.453125 -55.84375 L 35.421875 -84.265625 C 27.546875 -90.398438 23.609375 -98.335938 23.609375 -108.078125 C 23.609375 -117.816406 26.742188 -126.054688 33.015625 -132.796875 C 39.296875 -139.535156 47.769531 -142.90625 58.4375 -142.90625 C 63.78125 -142.90625 69.585938 -142.238281 75.859375 -140.90625 L 83.859375 -140.90625 L 84.265625 -116.28125 L 82.265625 -116.28125 C 82.128906 -122.6875 79.820312 -127.722656 75.34375 -131.390625 C 70.875 -135.054688 65.269531 -136.890625 58.53125 -136.890625 C 51.800781 -136.890625 46.164062 -134.65625 41.625 -130.1875 C 37.09375 -125.71875 34.828125 -119.976562 34.828125 -112.96875 C 34.828125 -105.96875 37.757812 -100.132812 43.625 -95.46875 L 80.65625 -66.25 C 95.332031 -54.632812 102.671875 -40.625 102.671875 -24.21875 C 102.671875 -11.9375 97.800781 -1.394531 88.0625 7.40625 C 79.65625 15.007812 68.445312 18.8125 54.4375 18.8125 C 45.894531 18.8125 38.289062 17.210938 31.625 14.015625 C 19.082031 8.140625 11.539062 -1.867188 9 -16.015625 C 8.601562 -18.148438 8.40625 -20.847656 8.40625 -24.109375 C 8.40625 -27.378906 9.335938 -31.847656 11.203125 -37.515625 C 13.078125 -43.191406 16.679688 -48.898438 22.015625 -54.640625 Z M 23.8125 -53.234375 "/></g></g></g><g fill="#000000" fill-opacity="1"><g transform="translate(128.428446, 332.857223)"><g><path d="M 189.734375 34.03125 C 184.128906 35.488281 179.15625 36.21875 174.8125 36.21875 C 170.476562 36.21875 166.644531 35.953125 163.3125 35.421875 C 159.976562 34.890625 156.410156 33.851562 152.609375 32.3125 C 148.804688 30.78125 145.234375 29.015625 141.890625 27.015625 C 138.554688 25.015625 135.222656 22.546875 131.890625 19.609375 C 125.753906 14.671875 120.179688 9.332031 115.171875 3.59375 C 110.171875 -2.132812 100.53125 -12.90625 86.25 -28.71875 C 71.976562 -44.53125 62.503906 -55.035156 57.828125 -60.234375 C 53.160156 -65.441406 49.5625 -68.179688 47.03125 -68.453125 L 47.03125 -70.453125 C 54.769531 -70.453125 59.941406 -70.617188 62.546875 -70.953125 C 65.148438 -71.285156 67.914062 -71.882812 70.84375 -72.75 C 73.78125 -73.613281 76.25 -74.78125 78.25 -76.25 C 86.125 -81.320312 90.0625 -89.726562 90.0625 -101.46875 C 90.0625 -111.207031 87.890625 -119.007812 83.546875 -124.875 C 79.210938 -130.75 73.113281 -133.753906 65.25 -133.890625 L 40.421875 -133.890625 L 40.421875 -14.609375 C 40.421875 -11.273438 41.65625 -8.335938 44.125 -5.796875 C 46.59375 -3.265625 49.628906 -2 53.234375 -2 L 55.640625 -2 L 55.84375 0 L 12.015625 0 L 12.015625 -2 L 14.609375 -2 C 17.941406 -2 20.875 -3.195312 23.40625 -5.59375 C 25.945312 -8 27.285156 -10.9375 27.421875 -14.40625 L 27.421875 -125.484375 C 27.285156 -128.953125 25.984375 -131.921875 23.515625 -134.390625 C 21.046875 -136.859375 18.078125 -138.09375 14.609375 -138.09375 L 12.015625 -138.09375 L 12.015625 -140.09375 L 66.046875 -140.09375 C 77.785156 -140.09375 87.222656 -136.789062 94.359375 -130.1875 C 101.503906 -123.582031 105.078125 -114.84375 105.078125 -103.96875 C 105.078125 -93.09375 101.804688 -83.753906 95.265625 -75.953125 C 88.722656 -68.148438 80.71875 -64.25 71.25 -64.25 C 71.25 -64.25 71.179688 -64.25 71.046875 -64.25 C 75.585938 -59.445312 80.722656 -53.84375 86.453125 -47.4375 C 109.535156 -21.945312 124.347656 -5.9375 130.890625 0.59375 C 137.429688 7.132812 143.203125 12.503906 148.203125 16.703125 C 153.203125 20.910156 157.640625 24.015625 161.515625 26.015625 C 169.390625 30.285156 177.195312 32.421875 184.9375 32.421875 C 186.53125 32.421875 188.128906 32.285156 189.734375 32.015625 Z M 189.734375 34.03125 "/></g></g></g><path fill="#e1e1e1" d="M 96.789062 261.789062 L 357.328125 261.789062 C 358.664062 261.789062 359.949219 262.320312 360.894531 263.265625 C 361.839844 264.210938 362.371094 265.496094 362.371094 266.832031 L 362.371094 276.921875 C 362.371094 278.257812 361.839844 279.539062 360.894531 280.488281 C 359.949219 281.433594 358.664062 281.964844 357.328125 281.964844 L 96.789062 281.964844 C 94.003906 281.964844 91.746094 279.707031 91.746094 276.921875 L 91.746094 266.832031 C 91.746094 264.046875 94.003906 261.789062 96.789062 261.789062 Z M 96.789062 261.789062 " fill-opacity="1" fill-rule="nonzero"/><g fill="#000000" fill-opacity="1"><g transform="translate(101.599306, 275.657689)"><g><path d="M 8 -1.5625 L 8.390625 -0.296875 C 8.210938 -0.160156 8 -0.0625 7.75 0 C 7.507812 0.0703125 7.257812 0.109375 7 0.109375 C 6.050781 0.109375 5.304688 -0.304688 4.765625 -1.140625 L 3.46875 -3.125 C 3.332031 -3.34375 3.191406 -3.492188 3.046875 -3.578125 C 2.910156 -3.660156 2.757812 -3.703125 2.59375 -3.703125 L 2.53125 -3.703125 L 2.53125 0 L 0.921875 0 L 0.921875 -8.96875 L 3.71875 -8.96875 C 4.851562 -8.96875 5.710938 -8.726562 6.296875 -8.25 C 6.878906 -7.78125 7.171875 -7.132812 7.171875 -6.3125 C 7.171875 -5.8125 7.0625 -5.382812 6.84375 -5.03125 C 6.625 -4.675781 6.320312 -4.390625 5.9375 -4.171875 C 5.5625 -3.960938 5.132812 -3.832031 4.65625 -3.78125 C 4.90625 -3.644531 5.140625 -3.414062 5.359375 -3.09375 L 6.0625 -2.046875 C 6.25 -1.773438 6.421875 -1.585938 6.578125 -1.484375 C 6.742188 -1.390625 6.953125 -1.34375 7.203125 -1.34375 C 7.503906 -1.34375 7.769531 -1.414062 8 -1.5625 Z M 3.59375 -7.625 L 2.53125 -7.625 L 2.53125 -4.984375 L 3.515625 -4.984375 C 4.210938 -4.984375 4.722656 -5.085938 5.046875 -5.296875 C 5.378906 -5.515625 5.546875 -5.851562 5.546875 -6.3125 C 5.546875 -7.1875 4.894531 -7.625 3.59375 -7.625 Z M 3.59375 -7.625 "/></g></g></g><g fill="#000000" fill-opacity="1"><g transform="translate(119.115188, 275.657689)"><g><path d="M 0.921875 0 L 0.921875 -8.96875 L 2.5625 -8.96875 L 2.5625 0 Z M 0.921875 0 "/></g></g></g><g fill="#000000" fill-opacity="1"><g transform="translate(132.203706, 275.657689)"><g><path d="M 8.515625 -1.75 C 8.160156 -1.144531 7.671875 -0.679688 7.046875 -0.359375 C 6.429688 -0.046875 5.738281 0.109375 4.96875 0.109375 C 4.039062 0.109375 3.25 -0.0664062 2.59375 -0.421875 C 1.9375 -0.773438 1.429688 -1.28125 1.078125 -1.9375 C 0.734375 -2.59375 0.5625 -3.382812 0.5625 -4.3125 C 0.5625 -5.257812 0.753906 -6.085938 1.140625 -6.796875 C 1.535156 -7.515625 2.078125 -8.078125 2.765625 -8.484375 C 3.453125 -8.890625 4.25 -9.09375 5.15625 -9.09375 C 5.9375 -9.09375 6.601562 -8.941406 7.15625 -8.640625 C 7.707031 -8.347656 8.164062 -7.90625 8.53125 -7.3125 L 7.265625 -6.40625 C 7.046875 -6.820312 6.75 -7.125 6.375 -7.3125 C 6 -7.507812 5.59375 -7.609375 5.15625 -7.609375 C 4.582031 -7.609375 4.078125 -7.46875 3.640625 -7.1875 C 3.203125 -6.914062 2.859375 -6.53125 2.609375 -6.03125 C 2.359375 -5.539062 2.234375 -4.972656 2.234375 -4.328125 C 2.234375 -3.390625 2.472656 -2.660156 2.953125 -2.140625 C 3.441406 -1.617188 4.117188 -1.359375 4.984375 -1.359375 C 5.460938 -1.359375 5.90625 -1.46875 6.3125 -1.6875 C 6.71875 -1.90625 7.046875 -2.238281 7.296875 -2.6875 Z M 8.515625 -1.75 "/></g></g></g><g fill="#000000" fill-opacity="1"><g transform="translate(150.236736, 275.657689)"><g><path d="M 0.921875 0 L 0.921875 -8.96875 L 2.5625 -8.96875 L 2.5625 -5.25 L 6.8125 -5.25 L 6.8125 -8.96875 L 8.453125 -8.96875 L 8.453125 0 L 6.8125 0 L 6.8125 -3.8125 L 2.5625 -3.8125 L 2.5625 0 Z M 0.921875 0 "/></g></g></g><g fill="#000000" fill-opacity="1"><g transform="translate(169.203169, 275.657689)"><g><path d="M -0.125 0 L 3.703125 -8.96875 L 5.09375 -8.96875 L 8.765625 0 L 7.09375 0 L 6.28125 -2.046875 L 2.375 -2.046875 L 1.546875 0 Z M 2.9375 -3.421875 L 5.75 -3.421875 L 4.375 -6.9375 Z M 2.9375 -3.421875 "/></g></g></g><g fill="#000000" fill-opacity="1"><g transform="translate(187.48847, 275.657689)"><g><path d="M 8 -1.5625 L 8.390625 -0.296875 C 8.210938 -0.160156 8 -0.0625 7.75 0 C 7.507812 0.0703125 7.257812 0.109375 7 0.109375 C 6.050781 0.109375 5.304688 -0.304688 4.765625 -1.140625 L 3.46875 -3.125 C 3.332031 -3.34375 3.191406 -3.492188 3.046875 -3.578125 C 2.910156 -3.660156 2.757812 -3.703125 2.59375 -3.703125 L 2.53125 -3.703125 L 2.53125 0 L 0.921875 0 L 0.921875 -8.96875 L 3.71875 -8.96875 C 4.851562 -8.96875 5.710938 -8.726562 6.296875 -8.25 C 6.878906 -7.78125 7.171875 -7.132812 7.171875 -6.3125 C 7.171875 -5.8125 7.0625 -5.382812 6.84375 -5.03125 C 6.625 -4.675781 6.320312 -4.390625 5.9375 -4.171875 C 5.5625 -3.960938 5.132812 -3.832031 4.65625 -3.78125 C 4.90625 -3.644531 5.140625 -3.414062 5.359375 -3.09375 L 6.0625 -2.046875 C 6.25 -1.773438 6.421875 -1.585938 6.578125 -1.484375 C 6.742188 -1.390625 6.953125 -1.34375 7.203125 -1.34375 C 7.503906 -1.34375 7.769531 -1.414062 8 -1.5625 Z M 3.59375 -7.625 L 2.53125 -7.625 L 2.53125 -4.984375 L 3.515625 -4.984375 C 4.210938 -4.984375 4.722656 -5.085938 5.046875 -5.296875 C 5.378906 -5.515625 5.546875 -5.851562 5.546875 -6.3125 C 5.546875 -7.1875 4.894531 -7.625 3.59375 -7.625 Z M 3.59375 -7.625 "/></g></g></g><g fill="#000000" fill-opacity="1"><g transform="translate(205.004352, 275.657689)"><g><path d="M 0.921875 0 L 0.921875 -8.96875 L 3.578125 -8.96875 C 5.328125 -8.96875 6.644531 -8.59375 7.53125 -7.84375 C 8.425781 -7.09375 8.875 -5.984375 8.875 -4.515625 C 8.875 -3.609375 8.675781 -2.816406 8.28125 -2.140625 C 7.882812 -1.460938 7.320312 -0.9375 6.59375 -0.5625 C 5.875 -0.1875 5.023438 0 4.046875 0 Z M 2.5625 -1.453125 L 3.984375 -1.453125 C 5.035156 -1.453125 5.832031 -1.707031 6.375 -2.21875 C 6.925781 -2.726562 7.203125 -3.472656 7.203125 -4.453125 C 7.203125 -5.484375 6.921875 -6.25 6.359375 -6.75 C 5.804688 -7.257812 4.953125 -7.515625 3.796875 -7.515625 L 2.5625 -7.515625 Z M 2.5625 -1.453125 "/></g></g></g><g fill="#000000" fill-opacity="1"><g transform="translate(224.046474, 275.657689)"><g/></g></g><g fill="#000000" fill-opacity="1"><g transform="translate(236.718759, 275.657689)"><g><path d="M 3.71875 0.109375 C 2.664062 0.109375 1.84375 -0.125 1.25 -0.59375 C 0.65625 -1.0625 0.316406 -1.75 0.234375 -2.65625 L 1.78125 -2.890625 C 1.925781 -1.816406 2.59375 -1.28125 3.78125 -1.28125 C 4.300781 -1.28125 4.703125 -1.378906 4.984375 -1.578125 C 5.273438 -1.785156 5.421875 -2.078125 5.421875 -2.453125 C 5.421875 -2.785156 5.273438 -3.035156 4.984375 -3.203125 C 4.703125 -3.378906 4.242188 -3.546875 3.609375 -3.703125 C 3.023438 -3.835938 2.519531 -4.003906 2.09375 -4.203125 C 1.675781 -4.398438 1.351562 -4.664062 1.125 -5 C 0.90625 -5.34375 0.796875 -5.789062 0.796875 -6.34375 C 0.796875 -6.875 0.929688 -7.347656 1.203125 -7.765625 C 1.472656 -8.179688 1.847656 -8.503906 2.328125 -8.734375 C 2.816406 -8.972656 3.375 -9.09375 4 -9.09375 C 4.832031 -9.09375 5.515625 -8.875 6.046875 -8.4375 C 6.578125 -8 6.890625 -7.394531 6.984375 -6.625 L 5.546875 -6.390625 C 5.367188 -7.265625 4.828125 -7.703125 3.921875 -7.703125 C 3.484375 -7.703125 3.128906 -7.585938 2.859375 -7.359375 C 2.585938 -7.128906 2.453125 -6.832031 2.453125 -6.46875 C 2.453125 -6.09375 2.582031 -5.804688 2.84375 -5.609375 C 3.113281 -5.410156 3.578125 -5.238281 4.234375 -5.09375 C 4.804688 -4.957031 5.300781 -4.796875 5.71875 -4.609375 C 6.144531 -4.429688 6.472656 -4.179688 6.703125 -3.859375 C 6.941406 -3.546875 7.0625 -3.109375 7.0625 -2.546875 C 7.0625 -2.023438 6.921875 -1.5625 6.640625 -1.15625 C 6.359375 -0.757812 5.960938 -0.445312 5.453125 -0.21875 C 4.953125 0 4.375 0.109375 3.71875 0.109375 Z M 3.71875 0.109375 "/></g></g></g><g fill="#000000" fill-opacity="1"><g transform="translate(253.717471, 275.657689)"><g><path d="M -0.125 0 L 3.703125 -8.96875 L 5.09375 -8.96875 L 8.765625 0 L 7.09375 0 L 6.28125 -2.046875 L 2.375 -2.046875 L 1.546875 0 Z M 2.9375 -3.421875 L 5.75 -3.421875 L 4.375 -6.9375 Z M 2.9375 -3.421875 "/></g></g></g><g fill="#000000" fill-opacity="1"><g transform="translate(272.002779, 275.657689)"><g><path d="M 6.8125 -8.96875 L 8.390625 -8.96875 L 8.390625 0 L 6.953125 0 L 2.5 -6.25 L 2.5 0 L 0.921875 0 L 0.921875 -8.96875 L 2.359375 -8.96875 L 6.8125 -2.71875 Z M 6.8125 -8.96875 "/></g></g></g><g fill="#000000" fill-opacity="1"><g transform="translate(290.918751, 275.657689)"><g><path d="M 8.515625 -1.75 C 8.160156 -1.144531 7.671875 -0.679688 7.046875 -0.359375 C 6.429688 -0.046875 5.738281 0.109375 4.96875 0.109375 C 4.039062 0.109375 3.25 -0.0664062 2.59375 -0.421875 C 1.9375 -0.773438 1.429688 -1.28125 1.078125 -1.9375 C 0.734375 -2.59375 0.5625 -3.382812 0.5625 -4.3125 C 0.5625 -5.257812 0.753906 -6.085938 1.140625 -6.796875 C 1.535156 -7.515625 2.078125 -8.078125 2.765625 -8.484375 C 3.453125 -8.890625 4.25 -9.09375 5.15625 -9.09375 C 5.9375 -9.09375 6.601562 -8.941406 7.15625 -8.640625 C 7.707031 -8.347656 8.164062 -7.90625 8.53125 -7.3125 L 7.265625 -6.40625 C 7.046875 -6.820312 6.75 -7.125 6.375 -7.3125 C 6 -7.507812 5.59375 -7.609375 5.15625 -7.609375 C 4.582031 -7.609375 4.078125 -7.46875 3.640625 -7.1875 C 3.203125 -6.914062 2.859375 -6.53125 2.609375 -6.03125 C 2.359375 -5.539062 2.234375 -4.972656 2.234375 -4.328125 C 2.234375 -3.390625 2.472656 -2.660156 2.953125 -2.140625 C 3.441406 -1.617188 4.117188 -1.359375 4.984375 -1.359375 C 5.460938 -1.359375 5.90625 -1.46875 6.3125 -1.6875 C 6.71875 -1.90625 7.046875 -2.238281 7.296875 -2.6875 Z M 8.515625 -1.75 "/></g></g></g><g fill="#000000" fill-opacity="1"><g transform="translate(308.951788, 275.657689)"><g><path d="M 0.921875 0 L 0.921875 -8.96875 L 2.5625 -8.96875 L 2.5625 -5.25 L 6.8125 -5.25 L 6.8125 -8.96875 L 8.453125 -8.96875 L 8.453125 0 L 6.8125 0 L 6.8125 -3.8125 L 2.5625 -3.8125 L 2.5625 0 Z M 0.921875 0 "/></g></g></g><g fill="#000000" fill-opacity="1"><g transform="translate(327.918214, 275.657689)"><g><path d="M 6.6875 -7.546875 L 2.53125 -7.546875 L 2.53125 -5.234375 L 6.484375 -5.234375 L 6.484375 -3.828125 L 2.53125 -3.828125 L 2.53125 -1.40625 L 6.84375 -1.40625 L 6.734375 0 L 0.921875 0 L 0.921875 -8.96875 L 6.6875 -8.96875 Z M 6.6875 -7.546875 "/></g></g></g><g fill="#000000" fill-opacity="1"><g transform="translate(344.652049, 275.657689)"><g><path d="M 0.484375 0 L 0.484375 -1.1875 L 5.3125 -7.53125 L 0.6875 -7.53125 L 0.6875 -8.96875 L 7.46875 -8.96875 L 7.46875 -7.78125 L 2.640625 -1.4375 L 7.625 -1.4375 L 7.515625 0 Z M 0.484375 0 "/></g></g></g></svg>