<?xml version="1.0" encoding="UTF-8"?>
<svg version="1.1" xmlns="http://www.w3.org/2000/svg" width="40" height="46">
<path d="M0 0 C3.03709116 1.01236372 4.1008604 1.51823351 6 4 C6.29296875 6.26171875 6.29296875 6.26171875 6.1875 8.6875 C6.16042969 9.49574219 6.13335937 10.30398437 6.10546875 11.13671875 C6.05326172 12.05904297 6.05326172 12.05904297 6 13 C5.34 13 4.68 13 4 13 C3.08341617 16.17053195 2.81167961 19.12823862 2.68359375 22.421875 C2.64169922 23.44667969 2.59980469 24.47148437 2.55664062 25.52734375 C2.51732422 26.59082031 2.47800781 27.65429688 2.4375 28.75 C2.39431641 29.82894531 2.35113281 30.90789063 2.30664062 32.01953125 C2.20071099 34.67954211 2.09986544 37.33975456 2 40 C-3.94 40 -9.88 40 -16 40 C-16.33 29.77 -16.66 19.54 -17 9 C-15.02 9 -13.04 9 -11 9 C-10.67 7.35 -10.34 5.7 -10 4 C-7.03 4 -4.06 4 -1 4 C-0.67 2.68 -0.34 1.36 0 0 Z " fill="#D24035" transform="translate(29,6)"/>
<path d="M0 0 C0.33 0 0.66 0 1 0 C1 7.26 1 14.52 1 22 C-4.28 22 -9.56 22 -15 22 C-15 16.39 -15 10.78 -15 5 C-14.01 5 -13.02 5 -12 5 C-12 6.98 -12 8.96 -12 11 C-8.7 11 -5.4 11 -2 11 C-1.7834375 9.1128125 -1.7834375 9.1128125 -1.5625 7.1875 C-1.26251314 4.57332877 -0.84186703 2.52560108 0 0 Z " fill="#D5D5DB" transform="translate(29,24)"/>
<path d="M0 0 C2.31 0 4.62 0 7 0 C6.01 0.495 6.01 0.495 5 1 C3.91323219 4.09503056 3.81030241 7.16365221 3.68359375 10.421875 C3.64169922 11.44667969 3.59980469 12.47148437 3.55664062 13.52734375 C3.51732422 14.59082031 3.47800781 15.65429688 3.4375 16.75 C3.39431641 17.82894531 3.35113281 18.90789063 3.30664062 20.01953125 C3.20071011 22.67956428 3.09863579 25.33968812 3 28 C2.67 28 2.34 28 2 28 C1.505 18.595 1.505 18.595 1 9 C0.34 11.64 -0.32 14.28 -1 17 C-4.3 17 -7.6 17 -11 17 C-11 15.02 -11 13.04 -11 11 C-11.99 11 -12.98 11 -14 11 C-14 16.61 -14 22.22 -14 28 C-14.33 28 -14.66 28 -15 28 C-15 19.75 -15 11.5 -15 3 C-14.34 3.66 -13.68 4.32 -13 5 C-12.01 5 -11.02 5 -10 5 C-10 6.66666667 -10 8.33333333 -10 10 C-9.01 10.33 -8.02 10.66 -7 11 C-7 11.66 -7 12.32 -7 13 C-5.68 13.33 -4.36 13.66 -3 14 C-2.01 9.38 -1.02 4.76 0 0 Z " fill="#831C23" transform="translate(28,18)"/>
<path d="M0 0 C1.93166016 0.01740234 1.93166016 0.01740234 3.90234375 0.03515625 C5.19269531 0.04417969 6.48304687 0.05320313 7.8125 0.0625 C8.81152344 0.07410156 9.81054688 0.08570313 10.83984375 0.09765625 C10.83984375 2.40765625 10.83984375 4.71765625 10.83984375 7.09765625 C6.21984375 7.09765625 1.59984375 7.09765625 -3.16015625 7.09765625 C-3.49015625 5.11765625 -3.82015625 3.13765625 -4.16015625 1.09765625 C-3.16015625 0.09765625 -3.16015625 0.09765625 0 0 Z " fill="#F4F4F6" transform="translate(19.16015625,35.90234375)"/>
<path d="M0 0 C4.25 1.41666667 4.25 1.41666667 6 4 C6.25786843 6.71836308 6.13483297 9.25839624 6 12 C2.7 12 -0.6 12 -4 12 C-4 9.36 -4 6.72 -4 4 C-3.01 4 -2.02 4 -1 4 C-0.67 2.68 -0.34 1.36 0 0 Z " fill="#EAE7EC" transform="translate(29,6)"/>
<path d="M0 0 C0.99 0.66 1.98 1.32 3 2 C3.1875 4.625 3.1875 4.625 3 7 C2.360625 7.103125 1.72125 7.20625 1.0625 7.3125 C0.381875 7.539375 -0.29875 7.76625 -1 8 C-1.33 8.99 -1.66 9.98 -2 11 C-4.0625 12.1875 -4.0625 12.1875 -6 13 C-7.85776765 9.86501708 -8.20140476 7.62528568 -8 4 C-5.36 3.67 -2.72 3.34 0 3 C0 2.01 0 1.02 0 0 Z " fill="#AAA9C0" transform="translate(20,11)"/>
<path d="M0 0 C0.66 0 1.32 0 2 0 C1.88490339 1.41750563 1.75746342 2.83401169 1.625 4.25 C1.55539063 5.03890625 1.48578125 5.8278125 1.4140625 6.640625 C0.98492887 9.085877 0.21399362 10.84836903 -1 13 C-2.65 13 -4.3 13 -6 13 C-6 12.01 -6 11.02 -6 10 C-7.32 9.34 -8.64 8.68 -10 8 C-9.67 6.68 -9.34 5.36 -9 4 C-8.67 4.66 -8.34 5.32 -8 6 C-5.69 6 -3.38 6 -1 6 C-0.67 4.02 -0.34 2.04 0 0 Z " fill="#BE2224" transform="translate(26,19)"/>
<path d="M0 0 C0.33 0 0.66 0 1 0 C1 3.96 1 7.92 1 12 C-4.28 12 -9.56 12 -15 12 C-15 9.69 -15 7.38 -15 5 C-14.01 5 -13.02 5 -12 5 C-12 6.98 -12 8.96 -12 11 C-8.7 11 -5.4 11 -2 11 C-1.7834375 9.1128125 -1.7834375 9.1128125 -1.5625 7.1875 C-1.26251314 4.57332877 -0.84186703 2.52560108 0 0 Z " fill="#AA9DA7" transform="translate(29,24)"/>
<path d="M0 0 C2.31 0 4.62 0 7 0 C6.01 0.495 6.01 0.495 5 1 C3.91323219 4.09503056 3.81030241 7.16365221 3.68359375 10.421875 C3.64169922 11.44667969 3.59980469 12.47148437 3.55664062 13.52734375 C3.49766602 15.12255859 3.49766602 15.12255859 3.4375 16.75 C3.39431641 17.82894531 3.35113281 18.90789063 3.30664062 20.01953125 C3.20071011 22.67956428 3.09863579 25.33968812 3 28 C2.67 28 2.34 28 2 28 C2 20.74 2 13.48 2 6 C1.34 6 0.68 6 0 6 C0 4.02 0 2.04 0 0 Z " fill="#5D2024" transform="translate(28,18)"/>
<path d="M0 0 C0.33 0.66 0.66 1.32 1 2 C2.98 2 4.96 2 7 2 C6.67 3.65 6.34 5.3 6 7 C3.69 6.01 1.38 5.02 -1 4 C-0.67 2.68 -0.34 1.36 0 0 Z " fill="#C72D2B" transform="translate(17,23)"/>
<path d="M0 0 C1.66611905 -0.042721 3.33382885 -0.04063832 5 0 C6 1 6 1 6.0625 4.5625 C6.041875 5.696875 6.02125 6.83125 6 8 C3.2160817 6.60804085 3.02101003 4.84424221 2 2 C1.67 2.66 1.34 3.32 1 4 C0.34 4 -0.32 4 -1 4 C-0.67 2.68 -0.34 1.36 0 0 Z " fill="#3A2623" transform="translate(19,10)"/>
<path d="M0 0 C0.66 0.33 1.32 0.66 2 1 C2 4.66666667 2 8.33333333 2 12 C1.67 12 1.34 12 1 12 C1 10.35 1 8.7 1 7 C0.01 7 -0.98 7 -2 7 C-1.125 1.125 -1.125 1.125 0 0 Z " fill="#971119" transform="translate(16,22)"/>
<path d="M0 0 C0.99 0.66 1.98 1.32 3 2 C3.1875 4.625 3.1875 4.625 3 7 C1.0625 6.6875 1.0625 6.6875 -1 6 C-1.33 5.01 -1.66 4.02 -2 3 C-1.34 3 -0.68 3 0 3 C0 2.01 0 1.02 0 0 Z " fill="#BA896F" transform="translate(20,11)"/>
<path d="M0 0 C2.31 0 4.62 0 7 0 C7 0.99 7 1.98 7 3 C4.69 3 2.38 3 0 3 C0 2.01 0 1.02 0 0 Z " fill="#D7B2BD" transform="translate(23,43)"/>
<path d="M0 0 C3.39914975 1.13304992 4.05254451 2.12518475 6 5 C3.69 4.67 1.38 4.34 -1 4 C-0.67 2.68 -0.34 1.36 0 0 Z " fill="#A8968F" transform="translate(29,6)"/>
<path d="M0 0 C0.66 0 1.32 0 2 0 C2 0.66 2 1.32 2 2 C3.32 1.67 4.64 1.34 6 1 C5.67 2.65 5.34 4.3 5 6 C4.34 6 3.68 6 3 6 C0 2.53846154 0 2.53846154 0 0 Z " fill="#8E778D" transform="translate(13,16)"/>
<path d="M0 0 C1.65 0 3.3 0 5 0 C5.33 0.66 5.66 1.32 6 2 C2.535 3.485 2.535 3.485 -1 5 C-0.67 3.35 -0.34 1.7 0 0 Z " fill="#A11B1D" transform="translate(19,17)"/>
</svg>
